<?xml version="1.0" encoding="UTF-8" standalone="no"?>
<svg
   width="364"
   height="430"
   viewBox="0 0 364 430"
   fill="none"
   version="1.1"
   id="svg12"
   xml:space="preserve"
   xmlns="http://www.w3.org/2000/svg"
   xmlns:svg="http://www.w3.org/2000/svg"><rect
     width="364"
     height="430"
     rx="20"
     fill="#FFCEA0"
     id="rect1" /><g
     filter="url(#filter0_d_161_251)"
     id="g2"><rect
       x="90"
       y="123"
       width="184"
       height="184"
       rx="20"
       fill="white"
       id="rect2" /></g><defs
     id="defs12"><filter
       id="filter0_d_161_251"
       x="81"
       y="118"
       width="202"
       height="202"
       filterUnits="userSpaceOnUse"
       color-interpolation-filters="sRGB"><feFlood
         flood-opacity="0"
         result="BackgroundImageFix"
         id="feFlood10" /><feColorMatrix
         in="SourceAlpha"
         type="matrix"
         values="0 0 0 0 0 0 0 0 0 0 0 0 0 0 0 0 0 0 127 0"
         result="hardAlpha"
         id="feColorMatrix10" /><feOffset
         dy="4"
         id="feOffset10" /><feGaussianBlur
         stdDeviation="4.5"
         id="feGaussianBlur10" /><feComposite
         in2="hardAlpha"
         operator="out"
         id="feComposite10" /><feColorMatrix
         type="matrix"
         values="0 0 0 0 0 0 0 0 0 0 0 0 0 0 0 0 0 0 0.25 0"
         id="feColorMatrix11" /><feBlend
         mode="normal"
         in2="BackgroundImageFix"
         result="effect1_dropShadow_161_251"
         id="feBlend11" /><feBlend
         mode="normal"
         in="SourceGraphic"
         in2="effect1_dropShadow_161_251"
         result="shape"
         id="feBlend12" /></filter></defs><g
     style="fill:none;stroke:#5b5b5b;stroke-width:2;stroke-linecap:round;stroke-linejoin:round;stroke-opacity:1"
     id="g14"
     transform="matrix(4.5125535,0,0,4.5125535,127.80346,158.92835)"><path
       d="m 19,14 c 1.49,-1.46 3,-3.21 3,-5.5 A 5.5,5.5 0 0 0 16.5,3 C 14.74,3 13.5,3.5 12,5 10.5,3.5 9.26,3 7.5,3 A 5.5,5.5 0 0 0 2,8.5 c 0,2.3 1.5,4.05 3,5.5 l 7,7 z"
       id="path1"
       style="stroke:#5b5b5b;stroke-opacity:1" /><path
       d="M 12,5 9.04,7.96 a 2.17,2.17 0 0 0 0,3.08 c 0.82,0.82 2.13,0.85 3,0.07 l 2.07,-1.9 a 2.82,2.82 0 0 1 3.79,0 l 2.96,2.66"
       id="path2-9"
       style="stroke:#5b5b5b;stroke-opacity:1" /><path
       d="M 18,15 16,13"
       id="path3-4"
       style="stroke:#5b5b5b;stroke-opacity:1" /><path
       d="M 15,18 13,16"
       id="path4-8"
       style="stroke:#5b5b5b;stroke-opacity:1" /></g></svg>
