<?xml version="1.0" encoding="UTF-8" standalone="no"?>
<!-- Created with Inkscape (http://www.inkscape.org/) -->

<svg
   width="150"
   height="140"
   viewBox="0 0 39.687499 37.041668"
   version="1.1"
   id="svg49"
   xmlns="http://www.w3.org/2000/svg"
   xmlns:svg="http://www.w3.org/2000/svg">
  <defs
     id="defs46" />
  <g
     id="layer1">
    <path
       fill="#FF0066"
       d="m 31.81056,3.6028342 c 3.144539,2.282453 5.778423,5.3073905 6.987863,8.8823158 1.18256,3.574927 0.88692,7.644845 0.161258,12.099754 -0.725665,4.427408 -1.908225,9.239811 -4.918379,11.274769 -3.010157,2.034958 -7.847907,1.347472 -12.067498,0.522488 C 17.727334,35.55718 14.072145,34.5947 10.443833,32.752237 6.788644,30.937274 3.160332,28.214828 1.305861,24.419907 -0.54860902,20.624983 -0.62923902,15.757584 1.493996,12.402652 3.590354,9.0202217 7.890576,7.1502619 11.572641,5.0603042 15.254706,2.9428482 18.318615,0.63289526 21.678162,0.22040329 25.037711,-0.19208763 28.666024,1.3203812 31.81056,3.6028342 Z"
       id="path2"
       style="fill:#f9f9f9;stroke-width:0.271862" />
  </g>
</svg>
