<svg width="364" height="364" viewBox="0 0 364 364" fill="none" xmlns="http://www.w3.org/2000/svg">
<g clip-path="url(#clip0_161_483)">
<rect width="364" height="364" rx="20" fill="white"/>
<circle cx="182" cy="489" r="242" fill="#FFCEA0"/>
<path d="M218.115 125.475H197.487C196.405 125.475 195.529 126.349 195.529 127.428C195.529 128.506 196.405 129.381 197.487 129.381H218.115C219.196 129.381 220.073 128.506 220.073 127.428C220.073 126.349 219.196 125.475 218.115 125.475Z" fill="#5B5B5B"/>
<path d="M211.681 133.287H197.487C196.405 133.287 195.529 134.162 195.529 135.24C195.529 136.319 196.405 137.193 197.487 137.193H211.681C212.763 137.193 213.639 136.319 213.639 135.24C213.639 134.162 212.763 133.287 211.681 133.287Z" fill="#5B5B5B"/>
<path d="M225.93 117.662H212.808V113.025C212.808 106.946 207.85 102 201.755 102H162.245C156.15 102 151.192 106.946 151.192 113.025V148.588H138.07C134.723 148.588 132 151.304 132 154.643V169.877C132 173.215 134.723 175.932 138.07 175.932H151.192V190.975C151.192 197.054 156.15 202 162.245 202H201.755C207.85 202 212.808 197.054 212.808 190.975V173.723C212.808 172.645 211.932 171.77 210.85 171.77C209.769 171.77 208.892 172.645 208.892 173.723V187.367H155.108V175.932H170.104L175.384 181.199C175.948 181.761 176.695 182.059 177.458 182.059C177.837 182.059 178.22 181.985 178.585 181.834C179.687 181.379 180.398 180.317 180.398 179.128V154.643C180.398 151.304 177.675 148.588 174.328 148.588H155.108V113.025C155.108 109.1 158.31 105.906 162.245 105.906H164.983L168.578 111.834C169.283 112.997 170.567 113.719 171.929 113.719H192.071C193.433 113.719 194.717 112.997 195.422 111.834L199.017 105.906H201.755C205.69 105.906 208.892 109.1 208.892 113.025V117.662H189.672C186.325 117.662 183.602 120.379 183.602 123.717V148.202C183.602 149.391 184.313 150.454 185.414 150.909C185.78 151.06 186.163 151.133 186.542 151.133C187.304 151.133 188.052 150.835 188.616 150.273L193.896 145.006H208.892V155.926C208.892 157.005 209.769 157.879 210.85 157.879C211.931 157.879 212.808 157.005 212.808 155.926V145.006H225.93C229.277 145.006 232 142.29 232 138.951V123.717C232 120.379 229.277 117.662 225.93 117.662ZM201.755 198.094H162.245C158.41 198.094 155.273 195.061 155.116 191.273H208.884C208.727 195.061 205.59 198.094 201.755 198.094ZM176.482 154.643V176.77L172.299 172.597C171.932 172.231 171.434 172.025 170.915 172.025H138.07C136.882 172.025 135.916 171.062 135.916 169.877V154.643C135.916 153.458 136.882 152.494 138.07 152.494H174.328C175.516 152.494 176.482 153.458 176.482 154.643ZM192.071 109.812H171.929L169.56 105.906H194.44L192.071 109.812ZM228.084 138.951C228.084 140.136 227.118 141.1 225.93 141.1H193.085C192.566 141.1 192.068 141.306 191.701 141.672L187.518 145.844V123.717C187.518 122.532 188.484 121.569 189.672 121.569H225.93C227.118 121.569 228.084 122.532 228.084 123.717V138.951Z" fill="#5B5B5B"/>
<path d="M145.886 160.307H166.513C167.595 160.307 168.471 159.432 168.471 158.354C168.471 157.275 167.595 156.4 166.513 156.4H145.886C144.804 156.4 143.927 157.275 143.927 158.354C143.927 159.432 144.804 160.307 145.886 160.307Z" fill="#5B5B5B"/>
<path d="M166.513 164.213H152.318C151.237 164.213 150.36 165.087 150.36 166.166C150.36 167.245 151.237 168.119 152.318 168.119H166.513C167.594 168.119 168.471 167.245 168.471 166.166C168.471 165.087 167.594 164.213 166.513 164.213Z" fill="#5B5B5B"/>
<path d="M210.893 166.777C211.975 166.777 212.851 165.903 212.851 164.824C212.851 163.746 211.975 162.871 210.893 162.871C209.812 162.871 208.935 163.746 208.935 164.824C208.935 165.903 209.812 166.777 210.893 166.777Z" fill="#5B5B5B"/>
</g>
<defs>
<clipPath id="clip0_161_483">
<rect width="364" height="364" rx="20" fill="white"/>
</clipPath>
</defs>
</svg>
