<svg width="364" height="364" viewBox="0 0 364 364" fill="none" xmlns="http://www.w3.org/2000/svg">
<g clip-path="url(#clip0_161_475)">
<rect width="364" height="364" rx="20" fill="white"/>
<circle cx="182" cy="489" r="242" fill="#FFCEA0"/>
<path d="M225.238 102H211.972C210.893 102 210.019 102.875 210.019 103.954C210.019 105.033 210.893 105.908 211.972 105.908H225.238C226.812 105.908 228.094 107.19 228.094 108.766V142.17C228.094 143.746 226.812 145.028 225.237 145.028H194.278C193.76 145.028 193.263 145.234 192.896 145.6L190.288 148.21V146.982C190.288 145.903 189.414 145.028 188.335 145.028H180.707V127.977C180.707 125.536 179.212 123.438 177.09 122.55V108.766C177.09 107.19 178.371 105.908 179.946 105.908H194.394C195.472 105.908 196.347 105.033 196.347 103.954C196.347 102.875 195.472 102 194.394 102H179.946C176.217 102 173.184 105.035 173.184 108.766V122.097H137.877C134.637 122.097 132 124.735 132 127.977V155.231C132 158.474 134.637 161.112 137.877 161.112H167.799L172.075 165.39C172.449 165.764 172.948 165.963 173.457 165.963C173.708 165.963 173.962 165.914 174.204 165.814C174.933 165.512 175.409 164.799 175.409 164.009V161.083C178.379 160.791 180.707 158.278 180.707 155.231V148.936H186.382V152.928C186.382 153.718 186.858 154.43 187.588 154.733C187.829 154.833 188.083 154.882 188.335 154.882C188.843 154.882 189.343 154.683 189.716 154.309L195.087 148.936H225.237C228.966 148.936 232 145.901 232 142.17V108.766C232 105.035 228.966 102 225.238 102ZM176.801 155.231C176.801 156.319 175.917 157.203 174.83 157.203H173.456C172.378 157.203 171.503 158.079 171.503 159.158V159.291L169.989 157.776C169.623 157.409 169.126 157.203 168.608 157.203H137.877C136.791 157.203 135.906 156.319 135.906 155.231V127.977C135.906 126.89 136.79 126.005 137.877 126.005H174.83C175.917 126.005 176.801 126.89 176.801 127.977V155.231Z" fill="#5B5B5B"/>
<path d="M186.117 118.499V139.158C186.117 140.238 186.992 141.113 188.07 141.113H196.445C197.524 141.113 198.398 140.238 198.398 139.158V138.069H198.678C199.883 139.932 201.979 141.113 204.251 141.113H213.226C216.447 141.113 219.067 138.491 219.067 135.269V123.13C219.067 119.907 216.447 117.286 213.226 117.286H210.661V115.72C210.661 112.465 208.014 109.816 204.76 109.816C201.507 109.816 198.86 112.465 198.86 115.72V116.53C198.86 117.095 198.664 117.613 198.338 118.025C198.126 117.176 197.36 116.545 196.445 116.545H188.07C186.992 116.545 186.117 117.42 186.117 118.499ZM202.766 116.53V115.72C202.766 114.62 203.661 113.725 204.76 113.725C205.86 113.725 206.755 114.62 206.755 115.72V122.518C206.755 123.597 207.629 124.472 208.708 124.472C209.786 124.472 210.661 123.597 210.661 122.518V121.194H213.226C214.293 121.194 215.16 122.062 215.16 123.13V135.269C215.16 136.336 214.293 137.204 213.226 137.204H204.251C203.12 137.204 202.095 136.492 201.7 135.432C201.415 134.668 200.685 134.161 199.87 134.161H198.398V122.543C200.93 121.718 202.766 119.335 202.766 116.53ZM190.023 120.453H194.492V137.204H190.023V120.453Z" fill="#5B5B5B"/>
<path d="M167.46 134.981H164.845L165.661 132.461C165.994 131.434 165.431 130.332 164.405 130C163.379 129.668 162.277 130.23 161.945 131.257L160.739 134.981H155.114L155.93 132.461C156.262 131.434 155.7 130.332 154.674 130C153.647 129.668 152.546 130.23 152.214 131.257L151.008 134.981H147.067C145.989 134.981 145.114 135.856 145.114 136.936C145.114 138.015 145.989 138.89 147.067 138.89H149.743L148.004 144.259H144.131C143.053 144.259 142.178 145.134 142.178 146.213C142.178 147.292 143.053 148.168 144.131 148.168H146.739L145.93 150.666C145.598 151.693 146.16 152.795 147.186 153.127C147.386 153.192 147.589 153.223 147.788 153.223C148.612 153.223 149.379 152.697 149.646 151.87L150.845 148.168H156.47L155.661 150.666C155.329 151.693 155.891 152.795 156.917 153.127C157.117 153.192 157.32 153.223 157.52 153.223C158.344 153.223 159.11 152.697 159.377 151.871L160.576 148.168H164.524C165.602 148.168 166.477 147.292 166.477 146.213C166.477 145.134 165.602 144.259 164.524 144.259H161.842L163.58 138.89H167.46C168.538 138.89 169.413 138.015 169.413 136.936C169.413 135.856 168.538 134.981 167.46 134.981ZM157.735 144.259H152.11L153.849 138.89H159.474L157.735 144.259Z" fill="#5B5B5B"/>
<path d="M226.123 158.135H189.17C185.929 158.135 183.293 160.773 183.293 164.015V191.269C183.293 194.315 185.621 196.828 188.591 197.121V200.046C188.591 200.836 189.067 201.549 189.796 201.851C190.038 201.951 190.292 202 190.543 202C191.052 202 191.551 201.802 191.925 201.428L196.201 197.149H226.123C229.363 197.149 232 194.511 232 191.269V164.015C232 160.773 229.363 158.135 226.123 158.135ZM228.094 191.269C228.094 192.356 227.21 193.241 226.123 193.241H195.392C194.874 193.241 194.377 193.447 194.011 193.813L192.497 195.328V195.195C192.497 194.116 191.622 193.241 190.544 193.241H189.17C188.084 193.241 187.199 192.356 187.199 191.269V164.015C187.199 162.927 188.083 162.043 189.17 162.043H226.123C227.21 162.043 228.094 162.927 228.094 164.015V191.269Z" fill="#5B5B5B"/>
<path d="M217.409 169.69C214.728 167.008 210.407 166.942 207.647 169.496C204.886 166.943 200.565 167.008 197.884 169.69C197.878 169.696 197.872 169.703 197.866 169.709C196.546 171.038 195.82 172.801 195.82 174.675C195.82 176.558 196.553 178.329 197.884 179.66L204.487 186.267C205.358 187.139 206.502 187.574 207.646 187.574C208.79 187.574 209.934 187.139 210.804 186.267L217.409 179.66C218.74 178.329 219.473 176.558 219.473 174.675C219.473 172.792 218.74 171.022 217.409 169.69ZM214.647 176.897L208.042 183.504C207.907 183.64 207.752 183.668 207.646 183.668C207.54 183.668 207.385 183.64 207.25 183.504L200.646 176.897C200.053 176.303 199.726 175.515 199.726 174.675C199.726 173.836 200.053 173.047 200.646 172.454L200.658 172.442C201.884 171.229 203.866 171.233 205.087 172.454L206.265 173.633C206.632 174 207.128 174.206 207.646 174.206C208.164 174.206 208.661 174 209.027 173.634L210.206 172.454C211.431 171.229 213.423 171.229 214.647 172.454C215.24 173.047 215.567 173.836 215.566 174.675C215.567 175.515 215.24 176.303 214.647 176.897Z" fill="#5B5B5B"/>
<path d="M203.183 105.908C204.261 105.908 205.136 105.033 205.136 103.954C205.136 102.875 204.261 102 203.183 102C202.104 102 201.229 102.875 201.229 103.954C201.229 105.033 202.104 105.908 203.183 105.908Z" fill="#5B5B5B"/>
</g>
<defs>
<clipPath id="clip0_161_475">
<rect width="364" height="364" rx="20" fill="white"/>
</clipPath>
</defs>
</svg>
