<svg width="364" height="364" viewBox="0 0 364 364" fill="none" xmlns="http://www.w3.org/2000/svg">
<g clip-path="url(#clip0_161_470)">
<rect width="364" height="364" rx="20" fill="white"/>
<circle cx="180" cy="489" r="242" fill="#FFCEA0"/>
<path d="M150.505 159.848C148.783 160.87 147.625 162.747 147.625 164.891C147.625 168.121 150.254 170.75 153.484 170.75C156.03 170.75 158.202 169.117 159.008 166.844H174.188C177.418 166.844 180.047 169.472 180.047 172.703C180.047 175.934 177.418 178.562 174.188 178.562H150.75C145.365 178.562 140.984 182.943 140.984 188.328C140.984 193.713 145.365 198.094 150.75 198.094H170.281C171.36 198.094 172.234 197.219 172.234 196.141C172.234 195.062 171.36 194.188 170.281 194.188H150.75C147.519 194.188 144.891 191.559 144.891 188.328C144.891 185.097 147.519 182.469 150.75 182.469H174.188C179.572 182.469 183.953 178.088 183.953 172.703C183.953 167.318 179.572 162.938 174.188 162.938H159.008C158.546 161.635 157.636 160.544 156.464 159.848L171.382 135.373C173.728 131.845 174.969 127.735 174.969 123.484C174.969 111.638 165.331 102 153.484 102C141.638 102 132 111.638 132 123.484C132 127.735 133.24 131.845 135.587 135.373L150.505 159.848ZM153.484 166.844C152.407 166.844 151.531 165.968 151.531 164.891C151.531 163.814 152.407 162.938 153.484 162.938C154.561 162.938 155.438 163.814 155.438 164.891C155.438 165.968 154.561 166.844 153.484 166.844ZM153.484 105.906C163.177 105.906 171.062 113.792 171.062 123.484C171.062 126.974 170.042 130.347 168.11 133.237C168.095 133.26 168.081 133.283 168.067 133.306L153.484 157.231C153.484 157.231 138.873 133.26 138.858 133.237C136.927 130.347 135.906 126.974 135.906 123.484C135.906 113.792 143.792 105.906 153.484 105.906Z" fill="#5B5B5B"/>
<path d="M153.484 133.25C158.869 133.25 163.25 128.869 163.25 123.484C163.25 118.1 158.869 113.719 153.484 113.719C148.1 113.719 143.719 118.1 143.719 123.484C143.719 128.869 148.1 133.25 153.484 133.25ZM153.484 117.625C156.715 117.625 159.344 120.254 159.344 123.484C159.344 126.715 156.715 129.344 153.484 129.344C150.254 129.344 147.625 126.715 147.625 123.484C147.625 120.254 150.254 117.625 153.484 117.625Z" fill="#5B5B5B"/>
<path d="M210.516 134.422C198.669 134.422 189.031 144.06 189.031 155.906C189.031 160.164 190.276 164.28 192.63 167.811L207.492 191.124C206.341 191.82 205.448 192.901 204.992 194.188H187.859C186.781 194.188 185.906 195.062 185.906 196.141C185.906 197.219 186.781 198.094 187.859 198.094H204.992C205.798 200.367 207.969 202 210.516 202C213.746 202 216.375 199.371 216.375 196.141C216.375 194.015 215.238 192.151 213.54 191.124L228.402 167.811C230.756 164.28 232 160.164 232 155.906C232 144.06 222.362 134.422 210.516 134.422ZM210.516 198.094C209.439 198.094 208.562 197.218 208.562 196.141C208.562 195.064 209.439 194.188 210.516 194.188C211.593 194.188 212.469 195.064 212.469 196.141C212.469 197.218 211.593 198.094 210.516 198.094ZM225.142 165.659C225.134 165.671 210.516 188.601 210.516 188.601C210.516 188.601 195.897 165.671 195.89 165.659C193.958 162.769 192.938 159.396 192.938 155.906C192.938 146.214 200.823 138.328 210.516 138.328C220.208 138.328 228.094 146.214 228.094 155.906C228.094 159.396 227.073 162.769 225.142 165.659Z" fill="#5B5B5B"/>
<path d="M210.516 146.141C205.131 146.141 200.75 150.521 200.75 155.906C200.75 161.291 205.131 165.672 210.516 165.672C215.9 165.672 220.281 161.291 220.281 155.906C220.281 150.521 215.9 146.141 210.516 146.141ZM210.516 161.766C207.285 161.766 204.656 159.137 204.656 155.906C204.656 152.675 207.285 150.047 210.516 150.047C213.746 150.047 216.375 152.675 216.375 155.906C216.375 159.137 213.746 161.766 210.516 161.766Z" fill="#5B5B5B"/>
<path d="M179.07 198.094C180.149 198.094 181.023 197.219 181.023 196.141C181.023 195.062 180.149 194.188 179.07 194.188C177.992 194.188 177.117 195.062 177.117 196.141C177.117 197.219 177.992 198.094 179.07 198.094Z" fill="#5B5B5B"/>
</g>
<defs>
<clipPath id="clip0_161_470">
<rect width="364" height="364" rx="20" fill="white"/>
</clipPath>
</defs>
</svg>
