<?xml version="1.0" encoding="UTF-8" standalone="no"?>
<svg
   width="330"
   height="330"
   viewBox="0 0 330 330"
   fill="none"
   version="1.1"
   id="svg12"
   sodipodi:docname="doswiadczenie-z-najmlodszymi-mobile.svg"
   inkscape:version="1.4 (86a8ad7, 2024-10-11)"
   xmlns:inkscape="http://www.inkscape.org/namespaces/inkscape"
   xmlns:sodipodi="http://sodipodi.sourceforge.net/DTD/sodipodi-0.dtd"
   xmlns="http://www.w3.org/2000/svg"
   xmlns:svg="http://www.w3.org/2000/svg">
  <sodipodi:namedview
     id="namedview12"
     pagecolor="#ffffff"
     bordercolor="#000000"
     borderopacity="0.25"
     inkscape:showpageshadow="2"
     inkscape:pageopacity="0.0"
     inkscape:pagecheckerboard="0"
     inkscape:deskcolor="#d1d1d1"
     inkscape:zoom="1.6777715"
     inkscape:cx="165.09995"
     inkscape:cy="164.80194"
     inkscape:window-width="1920"
     inkscape:window-height="1001"
     inkscape:window-x="-9"
     inkscape:window-y="-9"
     inkscape:window-maximized="1"
     inkscape:current-layer="svg12" />
  <rect
     width="330"
     height="330"
     rx="20"
     fill="#FFCEA0"
     id="rect1" />
  <g
     filter="url(#filter0_d_258_1258)"
     id="g2">
    <rect
       x="73"
       y="73"
       width="184"
       height="184"
       rx="20"
       fill="white"
       id="rect2" />
  </g>
  <defs
     id="defs12">
    <filter
       id="filter0_d_258_1258"
       x="64"
       y="68"
       width="202"
       height="202"
       filterUnits="userSpaceOnUse"
       color-interpolation-filters="sRGB">
      <feFlood
         flood-opacity="0"
         result="BackgroundImageFix"
         id="feFlood10" />
      <feColorMatrix
         in="SourceAlpha"
         type="matrix"
         values="0 0 0 0 0 0 0 0 0 0 0 0 0 0 0 0 0 0 127 0"
         result="hardAlpha"
         id="feColorMatrix10" />
      <feOffset
         dy="4"
         id="feOffset10" />
      <feGaussianBlur
         stdDeviation="4.5"
         id="feGaussianBlur10" />
      <feComposite
         in2="hardAlpha"
         operator="out"
         id="feComposite10" />
      <feColorMatrix
         type="matrix"
         values="0 0 0 0 0 0 0 0 0 0 0 0 0 0 0 0 0 0 0.25 0"
         id="feColorMatrix11" />
      <feBlend
         mode="normal"
         in2="BackgroundImageFix"
         result="effect1_dropShadow_258_1258"
         id="feBlend11" />
      <feBlend
         mode="normal"
         in="SourceGraphic"
         in2="effect1_dropShadow_258_1258"
         result="shape"
         id="feBlend12" />
    </filter>
  </defs>
  <g
     style="fill:none;stroke:#5b5b5b;stroke-width:2;stroke-linecap:round;stroke-linejoin:round;stroke-opacity:1"
     id="g15"
     transform="matrix(4.3755841,0,0,4.3755841,113.08076,107.04342)">
    <path
       d="M 9,12 H 9.01"
       id="path1-8"
       style="stroke:#5b5b5b;stroke-opacity:1" />
    <path
       d="m 15,12 h 0.01"
       id="path2"
       style="stroke:#5b5b5b;stroke-opacity:1" />
    <path
       d="m 10,16 c 0.5,0.3 1.2,0.5 2,0.5 0.8,0 1.5,-0.2 2,-0.5"
       id="path3"
       style="stroke:#5b5b5b;stroke-opacity:1" />
    <path
       d="m 19,6.3 a 9,9 0 0 1 1.8,3.9 2,2 0 0 1 0,3.6 9,9 0 0 1 -17.6,0 2,2 0 0 1 0,-3.6 A 9,9 0 0 1 12,3 c 2,0 3.5,1.1 3.5,2.5 0,1.4 -0.9,2.5 -2,2.5 C 12.7,8 12,7.6 12,7"
       id="path4"
       style="stroke:#5b5b5b;stroke-opacity:1" />
  </g>
</svg>
