<svg width="364" height="430" viewBox="0 0 364 430" fill="none" xmlns="http://www.w3.org/2000/svg">
<rect width="364" height="430" rx="20" fill="#FFCEA0"/>
<g filter="url(#filter0_d_161_251)">
<rect x="90" y="123" width="184" height="184" rx="20" fill="white"/>
</g>
<path d="M205.438 261.875C206.3 261.875 207 261.175 207 260.313V248.453L217.534 240.197C218.853 239.147 220.619 237.088 221.309 235.45L228.747 218.159C228.831 217.966 228.875 217.753 228.875 217.541V202.481C228.875 200.538 226.672 199.103 224.544 198.844C221.906 198.503 218.591 199.938 217.341 204.928C216.697 207.519 216.553 209.709 216.425 211.641C216.366 212.5 217.016 213.309 217.878 213.366C218.741 213.425 219.481 212.834 219.534 211.975C219.662 210.044 219.797 208.003 220.375 205.681C220.769 204.113 221.613 202.184 223.416 201.944C224.622 201.772 225.631 202.419 225.797 202.713L225.75 217.219L218.434 234.228C217.978 235.319 216.559 236.978 215.597 237.747L204.472 246.466C204.094 246.759 203.875 247.213 203.875 247.694V260.313C203.875 261.175 204.575 261.875 205.438 261.875Z" fill="#5B5B5B"/>
<path d="M158.562 261.875C157.7 261.875 157 261.175 157 260.313V248.453L146.466 240.197C145.147 239.147 143.381 237.088 142.691 235.45L135.253 218.159C135.169 217.966 135.125 217.753 135.125 217.541V202.481C135.125 200.538 137.328 199.103 139.456 198.844C142.094 198.503 145.409 199.938 146.659 204.928C147.303 207.519 147.447 209.709 147.575 211.641C147.634 212.5 146.984 213.309 146.122 213.366C145.259 213.425 144.519 212.834 144.466 211.975C144.338 210.044 144.203 208.003 143.625 205.681C143.231 204.113 142.387 202.184 140.584 201.944C139.378 201.772 138.369 202.419 138.203 202.713L138.25 217.219L145.566 234.228C146.022 235.319 147.441 236.978 148.403 237.747L159.528 246.466C159.906 246.759 160.125 247.213 160.125 247.694V260.313C160.125 261.175 159.425 261.875 158.562 261.875Z" fill="#5B5B5B"/>
<path d="M177.313 261.875C176.45 261.875 175.75 261.175 175.75 260.313V243.241C175.75 236.656 171.203 230.916 164.691 229.278C163.853 229.069 163.347 228.219 163.556 227.381C163.766 226.547 164.6 226.028 165.453 226.247C173.353 228.234 178.875 235.222 178.875 243.241V260.313C178.875 261.175 178.175 261.875 177.313 261.875Z" fill="#5B5B5B"/>
<path d="M159.381 235.053C158.981 235.053 158.581 234.9 158.275 234.597L144.566 220.909C144.272 220.616 144.109 220.219 144.109 219.803C144.109 219.391 144.275 218.991 144.566 218.697C148.862 214.4 154.159 214.763 159.094 219.697L166.141 226.728C166.75 227.338 166.75 228.328 166.141 228.938C165.531 229.55 164.541 229.547 163.931 228.941L156.884 221.909C153.681 218.706 150.684 218.028 147.975 219.897L160.481 232.384C161.091 232.994 161.091 233.984 160.481 234.597C160.181 234.9 159.781 235.053 159.381 235.053Z" fill="#5B5B5B"/>
<path d="M186.688 261.875C185.825 261.875 185.125 261.175 185.125 260.313V243.241C185.125 235.222 190.647 228.234 198.547 226.247C199.394 226.028 200.231 226.547 200.444 227.381C200.65 228.219 200.144 229.069 199.309 229.278C192.797 230.916 188.25 236.656 188.25 243.241V260.313C188.25 261.175 187.55 261.875 186.688 261.875Z" fill="#5B5B5B"/>
<path d="M204.619 235.053C204.219 235.053 203.819 234.9 203.513 234.597C202.903 233.984 202.903 232.997 203.513 232.384L216.019 219.897C213.313 218.031 210.313 218.709 207.109 221.909L200.063 228.941C199.453 229.547 198.463 229.55 197.853 228.938C197.244 228.328 197.244 227.338 197.853 226.728L204.9 219.697C209.834 214.763 215.131 214.4 219.428 218.697C219.722 218.991 219.884 219.388 219.884 219.803C219.884 220.219 219.719 220.616 219.428 220.909L205.719 234.597C205.419 234.9 205.019 235.053 204.619 235.053Z" fill="#5B5B5B"/>
<path d="M204.619 235.053C204.219 235.053 203.819 234.9 203.513 234.597C202.903 233.984 202.903 232.997 203.513 232.384L216.019 219.897C213.313 218.031 210.313 218.709 207.109 221.909L200.063 228.941C199.453 229.547 198.463 229.55 197.853 228.938C197.244 228.328 197.244 227.338 197.853 226.728L204.9 219.697C209.834 214.763 215.131 214.4 219.428 218.697C219.722 218.991 219.884 219.388 219.884 219.803C219.884 220.219 219.719 220.616 219.428 220.909L205.719 234.597C205.419 234.9 205.019 235.053 204.619 235.053Z" fill="#5B5B5B"/>
<path d="M188.872 203.903C188.025 203.903 187.178 203.834 186.331 203.694C182.288 203.022 178.744 200.813 176.353 197.469C173.963 194.125 173.019 190.056 173.688 186.013C174.159 183.188 176.834 181.266 179.666 181.741C182.491 182.209 184.409 184.894 183.938 187.719C183.75 188.844 183.963 190.009 184.525 190.994C184.956 191.744 184.697 192.697 183.947 193.128C183.206 193.55 182.247 193.3 181.813 192.55C180.891 190.944 180.55 189.047 180.85 187.209C181.038 186.081 180.272 185.009 179.147 184.822C178.016 184.644 176.95 185.397 176.763 186.525C176.228 189.744 176.981 192.984 178.888 195.65C180.794 198.316 183.619 200.078 186.838 200.613C187.722 200.756 188.619 200.813 189.494 200.763C190.372 200.744 191.094 201.381 191.134 202.241C191.181 203.103 190.519 203.838 189.656 203.884C189.403 203.897 189.138 203.903 188.872 203.903Z" fill="#5B5B5B"/>
<path d="M179.769 225C178.337 225 176.816 224.863 175.191 224.563C170.966 223.781 167.519 221.35 165.481 217.709C164.078 215.206 162.903 211.291 163.694 205.553C163.116 205.825 162.55 205.994 162.003 206.125C159.837 206.647 156.731 205.734 154.925 204.053C153.556 202.775 152.959 201.116 153.25 199.381C153.503 197.884 154.241 196.694 155.384 195.934C156.687 195.072 158.253 194.931 159.344 194.997C161.525 189.234 166.128 186.413 171.366 187.75C173.675 188.341 175.553 189.769 176.794 191.878C179.053 195.713 178.853 200.925 177.912 204.522C177.697 205.356 176.853 205.853 176.009 205.641C175.172 205.422 174.672 204.569 174.894 203.734C175.634 200.878 175.875 196.478 174.103 193.466C173.278 192.069 172.097 191.163 170.591 190.778C166.619 189.756 163.397 192.15 161.919 197.15C161.681 197.944 160.878 198.413 160.059 198.228C159.55 198.113 158.012 197.944 157.106 198.55C156.844 198.728 156.478 199.059 156.334 199.906C156.291 200.159 156.159 200.934 157.056 201.772C158.275 202.906 160.375 203.306 161.272 203.091C162.378 202.825 163.85 202.469 165.434 198.528C165.612 198.016 165.8 197.494 166.006 196.963C166.309 196.169 167.184 195.756 167.994 196.05C168.794 196.338 169.219 197.209 168.95 198.016C168.759 198.575 168.572 199.094 168.378 199.578C166.012 206.438 165.953 212.156 168.209 216.188C169.784 219 172.466 220.884 175.762 221.494C189.637 224.05 194.875 213.225 197.997 206.75C199.056 204.55 199.697 203.225 200.603 202.578C200.881 202.381 201.431 202.081 202.178 201.688C205.897 199.734 214.609 195.156 215.594 186.578C216.422 179.419 211.25 172.625 204.075 171.434C200.675 170.866 197.225 171.663 194.403 173.678C191.584 175.694 189.719 178.688 189.15 182.106C189.069 182.775 188.556 183.541 187.897 183.672C185.837 184.081 184.284 185.672 183.944 187.719C183.597 189.803 184.628 191.884 186.512 192.9C187.272 193.309 187.556 194.256 187.147 195.016C186.734 195.775 185.794 196.059 185.028 195.653C181.969 194.006 180.291 190.613 180.859 187.206C181.344 184.288 183.428 181.869 186.194 180.903C187.016 176.966 189.266 173.506 192.581 171.138C196.078 168.634 200.341 167.647 204.584 168.35C213.375 169.809 219.706 178.147 218.697 186.934C217.519 197.156 207.428 202.456 203.628 204.453C203.059 204.753 202.634 204.966 202.419 205.116C202.116 205.397 201.391 206.9 200.806 208.106C198.069 213.788 192.656 225 179.769 225Z" fill="#5B5B5B"/>
<defs>
<filter id="filter0_d_161_251" x="81" y="118" width="202" height="202" filterUnits="userSpaceOnUse" color-interpolation-filters="sRGB">
<feFlood flood-opacity="0" result="BackgroundImageFix"/>
<feColorMatrix in="SourceAlpha" type="matrix" values="0 0 0 0 0 0 0 0 0 0 0 0 0 0 0 0 0 0 127 0" result="hardAlpha"/>
<feOffset dy="4"/>
<feGaussianBlur stdDeviation="4.5"/>
<feComposite in2="hardAlpha" operator="out"/>
<feColorMatrix type="matrix" values="0 0 0 0 0 0 0 0 0 0 0 0 0 0 0 0 0 0 0.25 0"/>
<feBlend mode="normal" in2="BackgroundImageFix" result="effect1_dropShadow_161_251"/>
<feBlend mode="normal" in="SourceGraphic" in2="effect1_dropShadow_161_251" result="shape"/>
</filter>
</defs>
</svg>
