<?xml version="1.0" encoding="UTF-8" standalone="no"?>
<svg
   width="249"
   height="101"
   viewBox="0 0 249 101"
   fill="none"
   version="1.1"
   id="svg17"
   sodipodi:docname="logo-kolor.svg"
   inkscape:version="1.4 (86a8ad7, 2024-10-11)"
   xmlns:inkscape="http://www.inkscape.org/namespaces/inkscape"
   xmlns:sodipodi="http://sodipodi.sourceforge.net/DTD/sodipodi-0.dtd"
   xmlns="http://www.w3.org/2000/svg"
   xmlns:svg="http://www.w3.org/2000/svg">
  <defs
     id="defs17" />
  <sodipodi:namedview
     id="namedview17"
     pagecolor="#ffffff"
     bordercolor="#000000"
     borderopacity="0.25"
     inkscape:showpageshadow="2"
     inkscape:pageopacity="0.0"
     inkscape:pagecheckerboard="0"
     inkscape:deskcolor="#d1d1d1"
     inkscape:zoom="3.560241"
     inkscape:cx="124.42978"
     inkscape:cy="50.417936"
     inkscape:window-width="1920"
     inkscape:window-height="1001"
     inkscape:window-x="-9"
     inkscape:window-y="-9"
     inkscape:window-maximized="1"
     inkscape:current-layer="svg17" />
  <path
     fill-rule="evenodd"
     clip-rule="evenodd"
     d="M19.5809 79.6468C20.7615 78.9874 21.5896 78.4948 21.8125 78.2965L23.9122 76.4267C23.9295 76.411 23.9475 76.3969 23.9659 76.3829C26.148 74.7324 28.7442 73.7181 31.4672 73.4522C34.1902 73.1862 36.9336 73.6791 39.3937 74.8762L40.2637 75.2966C41.5111 75.898 42.8778 76.2112 44.2626 76.213H50.6134L55.3901 73.6156C56.5775 72.9318 57.9483 72.6346 59.3123 72.765C60.6763 72.8955 61.9658 73.4473 63.0021 74.3438L63.9463 73.8351C63.9525 73.8317 63.9588 73.8285 63.9651 73.8253C65.94 72.8242 68.5419 73.551 70.0136 75.3967L70.4617 75.155C71.3315 74.6839 72.2974 74.4425 73.2703 74.4408C81.3385 66.5962 86.3507 55.6248 86.3507 43.4827C86.3507 19.6376 67.0204 0.307373 43.1753 0.307373C19.3303 0.307373 0 19.6376 0 43.4827C0 58.6205 7.79052 71.9387 19.5809 79.6468ZM53.1283 25.3365C49.1344 25.3427 45.393 27.2907 43.0971 30.5586C40.8012 27.2907 37.0598 25.3427 33.0659 25.3365C26.5344 25.3365 20.8055 31.4134 20.8055 38.34C20.8055 45.0906 24.6173 52.0433 31.8294 58.4471C35.171 61.4084 38.8365 63.9826 42.7561 66.1214C42.9701 66.2317 43.2241 66.2317 43.4382 66.1214C47.3563 63.9826 51.0207 61.408 54.3612 58.4471C61.577 52.0433 65.3887 45.0906 65.3887 38.34C65.3887 31.4134 59.6598 25.3365 53.1283 25.3365Z"
     fill="#FFCEA0"
     id="path1" />
  <path
     fill-rule="evenodd"
     clip-rule="evenodd"
     d="M42.9928 30.5888C45.2887 27.3208 49.0301 25.3729 53.024 25.3667C59.5555 25.3667 65.2844 31.4436 65.2844 38.3701C65.2844 45.1207 61.4726 52.0735 54.2569 58.4772C50.9164 61.4382 47.2519 64.0127 43.3338 66.1516C43.1198 66.2619 42.8658 66.2619 42.6517 66.1516C38.7322 64.0127 35.0666 61.4385 31.7251 58.4772C24.5129 52.0735 20.7012 45.1207 20.7012 38.3701C20.7012 31.4436 26.4301 25.3667 32.9616 25.3667C36.9555 25.3729 40.6969 27.3208 42.9928 30.5888Z"
     fill="#FF6E41"
     id="path2" />
  <path
     d="M70.4854 74.9092L70.0373 75.1509C68.5656 73.3052 65.9637 72.5784 63.9889 73.5795C63.9825 73.5827 63.9762 73.5859 63.97 73.5893L63.0258 74.098C61.9895 73.2015 60.7 72.6497 59.336 72.5193C57.972 72.3888 56.6013 72.686 55.4138 73.3698L50.6371 75.9672H44.2863C42.9015 75.9654 41.5348 75.6522 40.2874 75.0508L39.4175 74.6304C36.9573 73.4333 34.2139 72.9405 31.4909 73.2064C28.7679 73.4723 26.1717 74.4866 23.9897 76.1371C23.9712 76.1511 23.9532 76.1652 23.9359 76.181L21.8362 78.0507C21.0706 78.732 13.1632 82.8858 8.35864 85.3443C8.25999 85.3947 8.17225 85.4641 8.10042 85.5485C8.0286 85.6329 7.9741 85.7306 7.94003 85.8361C7.90597 85.9415 7.893 86.0526 7.90188 86.1631C7.91077 86.2736 7.94131 86.3812 7.99179 86.4798C8.04226 86.5785 8.11168 86.6662 8.19606 86.738C8.28044 86.8099 8.37815 86.8644 8.4836 86.8984C8.58904 86.9325 8.70017 86.9455 8.81062 86.9366C8.92108 86.9277 9.02871 86.8972 9.12736 86.8467C11.2347 85.7684 21.8047 80.338 22.9581 79.3112L25.0321 77.4647C26.9658 76.01 29.2636 75.1174 31.6723 74.8853C34.0809 74.6533 36.5069 75.0907 38.6828 76.1495L39.5526 76.5701C41.0292 77.2819 42.647 77.6526 44.2863 77.6548H52.7226C54.0084 77.6565 55.2519 78.1138 56.2325 78.9454C57.2131 79.777 57.8673 80.9292 58.0789 82.1974L51.8372 81.9154C49.6205 81.8158 47.3993 81.9184 45.2013 82.222C45.0906 82.2361 44.9838 82.272 44.8871 82.3276C44.7903 82.3833 44.7056 82.4576 44.6378 82.5462C44.57 82.6348 44.5204 82.736 44.4919 82.8438C44.4635 82.9517 44.4567 83.0642 44.472 83.1747C44.4873 83.2853 44.5244 83.3917 44.5811 83.4878C44.6378 83.5839 44.7129 83.6678 44.8023 83.7346C44.8916 83.8015 44.9933 83.85 45.1015 83.8773C45.2097 83.9045 45.3223 83.9101 45.4326 83.8936C47.5289 83.604 49.6472 83.5062 51.7612 83.6014L58.9572 83.9271C59.0711 83.9322 59.185 83.9142 59.2918 83.8741C59.3986 83.834 59.4962 83.7727 59.5786 83.6938C59.6611 83.6149 59.7267 83.5202 59.7714 83.4152C59.8162 83.3103 59.8392 83.1973 59.8391 83.0833C59.8391 82.9101 59.8308 82.739 59.8186 82.5688L60.8636 82.0178L71.2875 76.3944C72.1258 75.9405 73.0927 75.7829 74.0318 75.947C74.9709 76.1111 75.8271 76.5874 76.4617 77.2987L55.2936 91.8329C52.5106 93.1894 49.3687 93.6267 46.321 93.0819L33.6678 90.7519C32.2979 90.4133 30.8505 90.6101 29.6207 91.3022L16.9435 98.5485C16.8467 98.6032 16.7617 98.6764 16.6934 98.7641C16.625 98.8517 16.5747 98.952 16.5452 99.0592C16.5157 99.1663 16.5077 99.2783 16.5216 99.3886C16.5355 99.4988 16.571 99.6053 16.6262 99.7018C16.6813 99.7983 16.755 99.8829 16.843 99.9509C16.931 100.019 17.0315 100.069 17.1388 100.098C17.2461 100.127 17.3581 100.134 17.4683 100.12C17.5785 100.105 17.6848 100.069 17.781 100.014L30.4513 92.7708C31.3126 92.2877 32.3264 92.1533 33.2839 92.3951C33.3013 92.3996 33.3189 92.4034 33.3366 92.4064L46.0178 94.7419C49.4427 95.3545 52.9737 94.856 56.0952 93.3193C56.1311 93.3016 56.1656 93.2813 56.1986 93.2587L78.1329 78.1984C78.3102 78.0767 78.4344 77.8918 78.48 77.6817C78.5256 77.4715 78.4893 77.2518 78.3783 77.0675C77.5938 75.7606 76.3353 74.8067 74.8649 74.4046C73.3946 74.0026 71.8258 74.1833 70.4854 74.9092ZM56.2298 74.8472L56.2499 74.8359C57.0368 74.381 57.9344 74.1533 58.8429 74.1781C59.7514 74.2029 60.6353 74.4793 61.3961 74.9766L56.9568 77.3685C56.0736 76.712 55.0496 76.2704 53.966 76.0786L56.2298 74.8472ZM60.0692 80.5289L59.4751 80.8421C59.2028 80.0241 58.784 79.2625 58.2391 78.5944L64.7604 75.0805C65.9305 74.4939 67.5157 74.9141 68.5166 75.9716L60.0692 80.5289Z"
     fill="black"
     id="path3"
     style="fill:#ffcea0;fill-opacity:1" />
  <path
     fill-rule="evenodd"
     clip-rule="evenodd"
     d="M139.01 51.854C138.317 51.854 137.719 51.7179 137.217 51.4458C136.714 51.1736 136.293 50.7789 135.953 50.2618L135.75 51.6397H133.539V37.6055L131.919 37.2993V35.7173H136.096V41.8311C136.429 41.3616 136.836 41.0043 137.319 40.7594C137.808 40.5144 138.375 40.3919 139.02 40.3919C139.923 40.3919 140.687 40.6369 141.312 41.1268C141.944 41.6099 142.426 42.2904 142.759 43.1682C143.092 44.0459 143.258 45.0768 143.258 46.2608V46.4751C143.258 47.5502 143.092 48.4926 142.759 49.3024C142.426 50.1121 141.944 50.7415 141.312 51.1906C140.681 51.6329 139.913 51.854 139.01 51.854ZM138.276 49.8229C139.118 49.8229 139.73 49.5269 140.11 48.9349C140.497 48.3361 140.691 47.5162 140.691 46.4751V46.2608C140.691 45.4851 140.606 44.8114 140.436 44.2399C140.266 43.6615 140.005 43.2158 139.652 42.9028C139.298 42.583 138.843 42.4231 138.286 42.4231C137.77 42.4231 137.329 42.5489 136.962 42.8007C136.602 43.0457 136.313 43.3791 136.096 43.801V48.5164C136.32 48.9315 136.612 49.2547 136.972 49.4861C137.339 49.7106 137.774 49.8229 138.276 49.8229Z"
     fill="black"
     id="path4"
     style="fill:#ffcea0;fill-opacity:1" />
  <path
     fill-rule="evenodd"
     clip-rule="evenodd"
     d="M106.185 50.0679V51.6397H112.471C113.789 51.6397 114.94 51.3267 115.925 50.7007C116.916 50.0679 117.684 49.2037 118.227 48.1082C118.771 47.0059 119.042 45.7572 119.042 44.3623V44.0663C119.042 42.651 118.764 41.3956 118.207 40.3001C117.65 39.2046 116.872 38.3438 115.874 37.7178C114.882 37.0918 113.724 36.7788 112.4 36.7788H106.185V38.3608L107.815 38.6874V49.7515L106.185 50.0679ZM112.339 49.6596H110.383V38.7691H112.339C113.208 38.7691 113.948 38.997 114.56 39.4529C115.178 39.9088 115.65 40.5348 115.976 41.331C116.302 42.1203 116.465 43.0287 116.465 44.0561V44.3623C116.465 45.3626 116.302 46.2642 115.976 47.0671C115.65 47.8632 115.178 48.496 114.56 48.9655C113.948 49.4282 113.208 49.6596 112.339 49.6596Z"
     fill="black"
     id="path5"
     style="fill:#ffcea0;fill-opacity:1" />
  <path
     fill-rule="evenodd"
     clip-rule="evenodd"
     d="M123.27 51.1396C124.031 51.6159 124.941 51.854 126 51.854C127.053 51.854 127.956 51.6159 128.71 51.1396C129.471 50.6633 130.055 50.0032 130.462 49.1595C130.87 48.3089 131.074 47.3325 131.074 46.2302V46.0158C131.074 44.9135 130.87 43.9405 130.462 43.0967C130.055 42.253 129.471 41.5929 128.71 41.1166C127.949 40.6335 127.039 40.3919 125.98 40.3919C124.934 40.3919 124.031 40.6335 123.27 41.1166C122.509 41.5997 121.925 42.2632 121.518 43.1069C121.11 43.9507 120.906 44.9203 120.906 46.0158V46.2302C120.906 47.3325 121.11 48.3089 121.518 49.1595C121.925 50.0032 122.509 50.6633 123.27 51.1396ZM127.406 49.4146C127.039 49.7208 126.571 49.8739 126 49.8739C125.43 49.8739 124.954 49.7208 124.574 49.4146C124.2 49.1016 123.922 48.673 123.738 48.1286C123.562 47.5774 123.474 46.9446 123.474 46.2302V46.0158C123.474 45.3082 123.562 44.6821 123.738 44.1378C123.922 43.5934 124.2 43.1648 124.574 42.8517C124.947 42.5387 125.416 42.3822 125.98 42.3822C126.557 42.3822 127.033 42.5387 127.406 42.8517C127.78 43.1648 128.058 43.5934 128.242 44.1378C128.425 44.6821 128.517 45.3082 128.517 46.0158V46.2302C128.517 46.9446 128.425 47.5774 128.242 48.1286C128.058 48.673 127.78 49.1016 127.406 49.4146Z"
     fill="black"
     id="path6"
     style="fill:#ffcea0;fill-opacity:1" />
  <path
     d="M145.224 50.0679V51.6397H150.848V50.0679L149.319 49.7617V44.0051C149.523 43.6309 149.775 43.3383 150.073 43.1273C150.379 42.9164 150.766 42.8245 151.235 42.8517L152.671 42.9334L152.967 40.5552C152.831 40.5144 152.654 40.477 152.437 40.443C152.226 40.409 152.026 40.3919 151.836 40.3919C151.265 40.3919 150.766 40.5484 150.338 40.8614C149.917 41.1745 149.561 41.6235 149.269 42.2087L149.248 41.9842L149.116 40.5961H145.142V42.1781L146.752 42.4843V49.7617L145.224 50.0679Z"
     fill="black"
     id="path7"
     style="fill:#ffcea0;fill-opacity:1" />
  <path
     fill-rule="evenodd"
     clip-rule="evenodd"
     d="M159.395 51.854C158.356 51.854 157.449 51.6227 156.675 51.16C155.907 50.6905 155.31 50.044 154.882 49.2207C154.461 48.3974 154.25 47.455 154.25 46.3935V45.9648C154.25 44.8897 154.457 43.9337 154.871 43.0967C155.293 42.253 155.87 41.5929 156.603 41.1166C157.337 40.6335 158.172 40.3919 159.11 40.3919C160.108 40.3919 160.943 40.5927 161.616 40.9941C162.295 41.3956 162.808 41.9672 163.154 42.7089C163.501 43.4437 163.674 44.3283 163.674 45.3626V46.8323H156.909L156.889 46.8834C156.916 47.4618 157.035 47.9755 157.245 48.4246C157.463 48.8737 157.768 49.2275 158.162 49.4861C158.563 49.7447 159.048 49.8739 159.619 49.8739C160.217 49.8739 160.76 49.7923 161.249 49.629C161.738 49.4657 162.19 49.2343 162.604 48.9349L163.409 50.5476C162.974 50.915 162.421 51.2246 161.748 51.4764C161.076 51.7281 160.291 51.854 159.395 51.854ZM156.95 45.0258H161.218V44.7604C161.218 44.2773 161.144 43.8554 160.994 43.4948C160.852 43.1273 160.624 42.8415 160.312 42.6374C160.006 42.4333 159.616 42.3312 159.14 42.3312C158.726 42.3312 158.362 42.4469 158.05 42.6782C157.738 42.9096 157.486 43.226 157.296 43.6275C157.113 44.0221 156.987 44.4712 156.919 44.9747L156.95 45.0258Z"
     fill="black"
     id="path8"
     style="fill:#ffcea0;fill-opacity:1" />
  <path
     d="M171.161 50.0679V51.6397H176.958V50.0679L175.195 49.7617V46.1281L175.063 39.8612L175.114 39.851L179.841 51.3029H181.706L186.3 39.7897L186.351 39.8L186.331 46.3016V49.7617L184.629 50.0679V51.6397H190.426V50.0679L188.806 49.7617V38.667L190.426 38.3608V36.7788H185.078L180.86 47.5264H180.799L176.449 36.7788H171.161V38.3608L172.771 38.667V49.7617L171.161 50.0679Z"
     fill="black"
     id="path9"
     style="fill:#ffcea0;fill-opacity:1" />
  <path
     d="M192.158 51.6397V50.0679L193.686 49.7617V42.4843L192.066 42.1781V40.5961H196.253V49.7617L197.771 50.0679V51.6397H192.158Z"
     fill="black"
     id="path10"
     style="fill:#ffcea0;fill-opacity:1" />
  <path
     d="M193.584 38.0954V35.7173H196.253V38.0954H193.584Z"
     fill="black"
     id="path11"
     style="fill:#ffcea0;fill-opacity:1" />
  <path
     fill-rule="evenodd"
     clip-rule="evenodd"
     d="M201.805 51.16C202.58 51.6227 203.486 51.854 204.526 51.854C205.422 51.854 206.207 51.7281 206.879 51.4764C207.551 51.2246 208.105 50.915 208.54 50.5476L207.735 48.9349C207.32 49.2343 206.869 49.4657 206.38 49.629C205.891 49.7923 205.347 49.8739 204.75 49.8739C204.179 49.8739 203.694 49.7447 203.293 49.4861C202.899 49.2275 202.593 48.8737 202.376 48.4246C202.165 47.9755 202.046 47.4618 202.019 46.8834L202.04 46.8323H208.804V45.3626C208.804 44.3283 208.631 43.4437 208.285 42.7089C207.938 41.9672 207.426 41.3956 206.746 40.9941C206.074 40.5927 205.239 40.3919 204.24 40.3919C203.303 40.3919 202.468 40.6335 201.734 41.1166C201.001 41.5929 200.423 42.253 200.002 43.0967C199.588 43.9337 199.381 44.8897 199.381 45.9648V46.3935C199.381 47.455 199.591 48.3974 200.012 49.2207C200.44 50.044 201.038 50.6905 201.805 51.16ZM206.349 45.0258H202.08L202.05 44.9747C202.118 44.4712 202.243 44.0221 202.427 43.6275C202.617 43.226 202.868 42.9096 203.181 42.6782C203.493 42.4469 203.857 42.3312 204.271 42.3312C204.746 42.3312 205.137 42.4333 205.442 42.6374C205.755 42.8415 205.982 43.1273 206.125 43.4948C206.274 43.8554 206.349 44.2773 206.349 44.7604V45.0258Z"
     fill="black"
     id="path12"
     style="fill:#ffcea0;fill-opacity:1" />
  <path
     d="M210.852 56.1C210.594 56.1 210.363 56.0864 210.159 56.0592C209.955 56.032 209.741 55.9877 209.517 55.9265L209.66 53.977C209.782 54.011 209.938 54.0417 210.128 54.0689C210.325 54.0961 210.502 54.1097 210.658 54.1097C211.052 54.1097 211.361 53.9464 211.585 53.6198C211.809 53.2932 211.922 52.8407 211.922 52.2623V42.4843L210.302 42.1781V40.5961H214.489V52.2623C214.489 53.4871 214.166 54.4329 213.521 55.0998C212.883 55.7666 211.993 56.1 210.852 56.1Z"
     fill="black"
     id="path13"
     style="fill:#ffcea0;fill-opacity:1" />
  <path
     d="M211.799 38.0954V35.7173H214.469V38.0954H211.799Z"
     fill="black"
     id="path14"
     style="fill:#ffcea0;fill-opacity:1" />
  <path
     d="M219.307 51.6295C219.993 51.7792 220.73 51.854 221.518 51.854C222.999 51.854 224.099 51.5376 224.819 50.9048C225.539 50.272 225.899 49.4623 225.899 48.4756C225.899 47.591 225.59 46.88 224.972 46.3424C224.354 45.8049 223.328 45.3694 221.895 45.036C221.311 44.8999 220.866 44.7604 220.56 44.6175C220.262 44.4678 220.058 44.3045 219.949 44.1276C219.847 43.9507 219.796 43.7533 219.796 43.5356C219.796 43.1613 219.959 42.8517 220.285 42.6068C220.611 42.355 221.056 42.2291 221.62 42.2291C221.98 42.2291 222.299 42.27 222.578 42.3516C222.856 42.4333 223.101 42.5489 223.311 42.6986L223.627 44.1582H225.451L225.39 41.3514C224.934 41.0656 224.381 40.8376 223.729 40.6675C223.084 40.4906 222.343 40.4021 221.508 40.4021C220.591 40.4021 219.817 40.5518 219.185 40.8512C218.56 41.1438 218.085 41.5351 217.759 42.025C217.44 42.5149 217.28 43.0627 217.28 43.6683C217.28 44.5461 217.589 45.2605 218.207 45.8117C218.832 46.356 219.803 46.7711 221.121 47.0569C222.011 47.2474 222.612 47.4754 222.924 47.7407C223.243 47.9993 223.403 48.3123 223.403 48.6798C223.403 49.0608 223.25 49.3806 222.944 49.6392C222.646 49.8978 222.129 50.027 221.396 50.027C221.016 50.027 220.669 49.993 220.357 49.925C220.051 49.8501 219.752 49.7481 219.46 49.6188L219.073 48.0265H217.229L217.26 50.9456C217.946 51.245 218.628 51.473 219.307 51.6295Z"
     fill="black"
     id="path15"
     style="fill:#ffcea0;fill-opacity:1" />
  <path
     d="M232.908 51.854C231.875 51.854 230.979 51.6193 230.218 51.1498C229.464 50.6735 228.88 50.0202 228.466 49.1901C228.058 48.3531 227.855 47.3903 227.855 46.3016V45.9444C227.855 44.8761 228.058 43.9234 228.466 43.0865C228.873 42.2496 229.454 41.5929 230.208 41.1166C230.969 40.6335 231.865 40.3919 232.898 40.3919C233.842 40.3919 234.663 40.545 235.363 40.8512C236.063 41.1506 236.637 41.5249 237.085 41.974L237.095 44.9237H235.139L234.762 42.9742C234.572 42.7769 234.331 42.6204 234.039 42.5047C233.747 42.3822 233.427 42.321 233.081 42.321C232.517 42.321 232.035 42.4741 231.634 42.7803C231.24 43.0865 230.938 43.5118 230.728 44.0561C230.524 44.5937 230.422 45.2231 230.422 45.9444V46.3016C230.422 47.0773 230.527 47.7305 230.738 48.2613C230.948 48.792 231.24 49.1935 231.614 49.4657C231.994 49.7378 232.429 49.8739 232.918 49.8739C233.509 49.8739 233.988 49.714 234.354 49.3942C234.728 49.0744 234.973 48.6321 235.088 48.0674H237.309L237.339 48.1286C237.258 48.8499 237.044 49.4929 236.698 50.0577C236.358 50.6156 235.876 51.0545 235.251 51.3743C234.633 51.6941 233.852 51.854 232.908 51.854Z"
     fill="black"
     id="path16"
     style="fill:#ffcea0;fill-opacity:1" />
  <path
     fill-rule="evenodd"
     clip-rule="evenodd"
     d="M241.761 51.16C242.535 51.6227 243.442 51.854 244.481 51.854C245.377 51.854 246.162 51.7281 246.834 51.4764C247.507 51.2246 248.06 50.915 248.495 50.5476L247.69 48.9349C247.276 49.2343 246.824 49.4657 246.335 49.629C245.846 49.7923 245.303 49.8739 244.705 49.8739C244.134 49.8739 243.649 49.7447 243.248 49.4861C242.854 49.2275 242.548 48.8737 242.331 48.4246C242.121 47.9755 242.002 47.4618 241.975 46.8834L241.995 46.8323H248.76V45.3626C248.76 44.3283 248.586 43.4437 248.24 42.7089C247.894 41.9672 247.381 41.3956 246.702 40.9941C246.029 40.5927 245.194 40.3919 244.196 40.3919C243.258 40.3919 242.423 40.6335 241.689 41.1166C240.956 41.5929 240.378 42.253 239.957 43.0967C239.543 43.9337 239.336 44.8897 239.336 45.9648V46.3935C239.336 47.455 239.546 48.3974 239.968 49.2207C240.395 50.044 240.993 50.6905 241.761 51.16ZM246.304 45.0258H242.036L242.005 44.9747C242.073 44.4712 242.199 44.0221 242.382 43.6275C242.572 43.226 242.824 42.9096 243.136 42.6782C243.448 42.4469 243.812 42.3312 244.226 42.3312C244.702 42.3312 245.092 42.4333 245.398 42.6374C245.71 42.8415 245.938 43.1273 246.08 43.4948C246.23 43.8554 246.304 44.2773 246.304 44.7604V45.0258Z"
     fill="black"
     id="path17"
     style="fill:#ffcea0;fill-opacity:1" />
</svg>
