<svg width="330" height="330" viewBox="0 0 330 330" fill="none" xmlns="http://www.w3.org/2000/svg">
<rect width="330" height="330" rx="20" fill="#FFCEA0"/>
<g filter="url(#filter0_d_258_1475)">
<rect x="73" y="73" width="184" height="184" rx="20" fill="white"/>
</g>
<path d="M200.744 157.228C200.022 157.228 199.369 156.719 199.216 155.981C198.659 153.278 196.697 151.053 194.094 150.172L186.934 147.734C185.028 147.081 183.75 145.291 183.75 143.281V138.437C183.75 137.575 184.45 136.875 185.312 136.875C186.175 136.875 186.875 137.575 186.875 138.437V143.281C186.875 143.966 187.294 144.55 187.941 144.772L195.097 147.209C198.747 148.447 201.497 151.566 202.275 155.35C202.45 156.197 201.906 157.022 201.059 157.194C200.953 157.219 200.85 157.228 200.744 157.228Z" fill="#383838"/>
<path d="M162.638 153.006C162.272 153.006 161.903 152.878 161.606 152.619C160.959 152.047 160.894 151.062 161.463 150.412C162.719 148.981 164.341 147.894 166.147 147.272L173.303 144.803C173.947 144.584 174.375 143.997 174.375 143.344V138.438C174.375 137.575 175.075 136.875 175.938 136.875C176.8 136.875 177.5 137.575 177.5 138.438V143.344C177.5 145.337 176.222 147.109 174.316 147.759L167.166 150.225C165.872 150.672 164.713 151.45 163.813 152.475C163.503 152.825 163.072 153.006 162.638 153.006Z" fill="#383838"/>
<path d="M175.922 139.987C175.594 139.987 175.263 139.884 174.981 139.672C172.613 137.884 171.25 135.156 171.25 132.188V125.938C171.25 121.628 174.753 118.125 179.062 118.125H182.188C186.497 118.125 190 121.628 190 125.938V132.188C190 133.05 189.3 133.75 188.438 133.75C187.575 133.75 186.875 133.05 186.875 132.188V125.938C186.875 123.353 184.772 121.25 182.188 121.25H179.062C176.478 121.25 174.375 123.353 174.375 125.938V132.188C174.375 134.166 175.281 135.984 176.862 137.178C177.553 137.7 177.691 138.678 177.172 139.366C176.863 139.775 176.394 139.987 175.922 139.987Z" fill="#383838"/>
<path d="M182.197 141.403C181.472 141.403 180.822 140.894 180.669 140.153C180.497 139.306 181.044 138.484 181.891 138.309C184.778 137.722 186.875 135.144 186.875 132.188C186.875 131.325 187.575 130.625 188.438 130.625C189.3 130.625 190 131.325 190 132.188C190 136.625 186.85 140.484 182.513 141.372C182.406 141.394 182.3 141.403 182.197 141.403Z" fill="#383838"/>
<path d="M133.75 155.625C133.625 155.625 133.497 155.609 133.369 155.575C132.531 155.366 132.022 154.516 132.237 153.681L133.05 150.462C134.544 144.453 135.444 138.219 135.722 131.931L135.719 131.406C135.978 125.681 140.603 121.25 146.25 121.25C149.006 121.25 151.591 122.297 153.531 124.194C155.491 126.044 156.641 128.588 156.75 131.344L156.778 131.922C157.016 137.284 157.709 142.628 158.837 147.822C159.022 148.666 158.487 149.497 157.644 149.681C156.797 149.875 155.969 149.331 155.784 148.487C154.616 143.119 153.9 137.6 153.653 132.072L153.625 131.484C153.547 129.534 152.744 127.753 151.362 126.447C149.994 125.103 148.184 124.375 146.25 124.375C142.278 124.375 139.025 127.494 138.841 131.475L138.844 132C138.553 138.562 137.625 145.006 136.078 151.219L135.262 154.441C135.087 155.153 134.45 155.625 133.75 155.625Z" fill="#383838"/>
<path d="M130.99 158.744C130.703 158.744 130.415 158.669 130.156 158.503C129.428 158.047 129.206 157.078 129.669 156.35C131.187 153.938 133.381 152.063 136.003 150.938L139.037 149.631C139.622 149.375 140 148.8 140 148.166C140 147.303 140.7 146.603 141.562 146.603C142.425 146.603 143.125 147.303 143.125 148.166C143.125 150.053 142.006 151.75 140.272 152.497L137.237 153.803C135.2 154.681 133.497 156.138 132.312 158.016C132.015 158.484 131.509 158.744 130.99 158.744Z" fill="#383838"/>
<path d="M146.25 146.25C144.203 146.25 142.256 145.6 140.619 144.369C139.925 143.853 139.787 142.872 140.306 142.184C140.825 141.497 141.803 141.35 142.491 141.872C143.584 142.691 144.884 143.125 146.25 143.125C149.697 143.125 152.5 140.322 152.5 136.875V134.847C149.178 134.969 146.128 133.888 143.709 131.938C143.037 131.394 142.931 130.413 143.469 129.741C144.009 129.066 145 128.966 145.666 129.503C146.747 130.375 149.044 131.806 152.5 131.813H152.512C153.369 131.813 154.162 132.134 154.75 132.716C155.312 133.278 155.625 134.034 155.625 134.847V136.875C155.625 142.044 151.419 146.25 146.25 146.25Z" fill="#383838"/>
<path d="M181.147 181.712C180.734 181.712 180.325 181.55 180.019 181.231C179.344 180.525 178.55 179.959 177.656 179.547L174.75 178.203C173.063 177.375 172.031 175.75 172.031 173.941V171.875C172.031 171.012 172.731 170.312 173.594 170.312C174.456 170.312 175.156 171.012 175.156 171.875V173.937C175.156 174.544 175.516 175.094 176.094 175.378L178.969 176.706C180.216 177.284 181.331 178.078 182.278 179.069C182.872 179.694 182.853 180.684 182.228 181.278C181.925 181.569 181.534 181.712 181.147 181.712Z" fill="#383838"/>
<path d="M155.725 186.834C155.65 186.834 155.572 186.828 155.497 186.819C154.644 186.694 154.053 185.9 154.175 185.047C154.709 181.381 157.038 178.262 160.406 176.706L163.313 175.362C163.859 175.094 164.219 174.544 164.219 173.937V171.875C164.219 171.013 164.919 170.312 165.781 170.312C166.644 170.312 167.344 171.013 167.344 171.875V173.937C167.344 175.747 166.313 177.375 164.656 178.184L161.722 179.544C159.316 180.653 157.65 182.878 157.272 185.497C157.156 186.278 156.488 186.834 155.725 186.834Z" fill="#383838"/>
<path d="M170.472 174.325C169.697 174.325 169.025 173.747 168.925 172.959C168.816 172.103 169.422 171.322 170.278 171.209C172.616 170.919 174.375 168.916 174.375 166.562V163.437C174.375 162.178 173.888 161.012 173.006 160.15C172.113 159.237 170.947 158.75 169.688 158.75C167.103 158.75 165 160.853 165 163.437V166.562C165 167.822 165.487 168.987 166.369 169.85C166.522 170.006 166.659 170.131 166.803 170.247C167.469 170.794 167.566 171.778 167.019 172.447C166.472 173.112 165.494 173.209 164.819 172.662C164.591 172.472 164.372 172.275 164.166 172.066C162.697 170.634 161.875 168.672 161.875 166.562V163.437C161.875 159.128 165.378 155.625 169.688 155.625C171.797 155.625 173.759 156.447 175.216 157.941C176.678 159.366 177.5 161.328 177.5 163.437V166.562C177.5 170.487 174.566 173.819 170.672 174.312C170.606 174.322 170.537 174.325 170.472 174.325Z" fill="#383838"/>
<path d="M160.369 157.197C159.931 157.197 159.5 157.013 159.191 156.659C158.106 155.416 156.791 154.453 155.281 153.8L152.194 152.466C150.481 151.728 149.375 150.047 149.375 148.178V143.125C149.375 142.263 150.075 141.562 150.938 141.562C151.8 141.562 152.5 142.263 152.5 143.125V148.178C152.5 148.794 152.866 149.353 153.431 149.597L156.519 150.931C158.463 151.772 160.153 153.009 161.544 154.609C162.113 155.259 162.041 156.247 161.391 156.812C161.097 157.072 160.731 157.197 160.369 157.197Z" fill="#383838"/>
<path d="M141.562 211.875C140.7 211.875 140 211.175 140 210.312V207.828L129.466 199.572C128.147 198.522 126.381 196.462 125.691 194.822L118.253 177.531C118.169 177.337 118.125 177.131 118.125 176.916V161.856C118.125 159.912 120.328 158.481 122.456 158.219C125.1 157.869 128.409 159.316 129.659 164.303C130.303 166.894 130.447 169.084 130.575 171.016C130.634 171.875 129.984 172.684 129.122 172.744C128.259 172.725 127.519 172.209 127.466 171.353C127.338 169.422 127.203 167.381 126.625 165.059C126.231 163.487 125.387 161.562 123.584 161.322C122.384 161.15 121.369 161.797 121.203 162.091L121.25 176.594L128.566 193.603C129.022 194.691 130.441 196.353 131.403 197.119L142.528 205.837C142.906 206.134 143.125 206.591 143.125 207.069V210.312C143.125 211.175 142.425 211.875 141.562 211.875Z" fill="#383838"/>
<path d="M160.312 211.875C159.45 211.875 158.75 211.175 158.75 210.312V202.616C158.75 196.031 154.203 190.291 147.69 188.653C146.853 188.444 146.347 187.591 146.556 186.756C146.765 185.919 147.609 185.419 148.453 185.622C156.353 187.609 161.875 194.597 161.875 202.616V210.312C161.875 211.175 161.175 211.875 160.312 211.875Z" fill="#383838"/>
<path d="M142.381 194.428C141.981 194.428 141.581 194.275 141.275 193.972L127.566 180.284C127.272 179.991 127.109 179.594 127.109 179.178C127.109 178.762 127.275 178.366 127.566 178.072C128.112 177.525 129.775 175.862 132.353 175.3C134.587 174.812 138.094 175.072 142.094 179.072L149.141 186.103C149.75 186.709 149.75 187.7 149.141 188.312C148.531 188.922 147.541 188.922 146.931 188.312L139.884 181.281C136.681 178.081 133.684 177.4 130.975 179.269L143.481 191.756C144.091 192.362 144.091 193.356 143.481 193.966C143.181 194.275 142.781 194.428 142.381 194.428Z" fill="#383838"/>
<path d="M188.438 211.875C187.575 211.875 186.875 211.175 186.875 210.312V207.069C186.875 206.591 187.094 206.134 187.472 205.837L198.606 197.112C199.562 196.353 200.978 194.691 201.428 193.616L208.75 176.597V161.856C208.631 161.797 207.6 161.156 206.416 161.322C204.616 161.562 203.769 163.487 203.375 165.059C202.797 167.378 202.662 169.422 202.544 171.222L200.978 171.25L199.419 171.147C199.556 169.087 199.7 166.897 200.344 164.306C201.591 159.316 204.897 157.875 207.547 158.222C209.672 158.481 211.875 159.912 211.875 161.856V176.916C211.875 177.128 211.831 177.337 211.747 177.531L204.303 194.834C203.619 196.462 201.853 198.522 200.544 199.566L190 207.828V210.312C190 211.175 189.3 211.875 188.438 211.875Z" fill="#383838"/>
<path d="M169.688 211.875C168.825 211.875 168.125 211.175 168.125 210.312V202.616C168.125 194.597 173.647 187.609 181.547 185.622C182.394 185.422 183.231 185.922 183.444 186.756C183.65 187.594 183.144 188.444 182.309 188.653C175.797 190.291 171.25 196.031 171.25 202.616V210.312C171.25 211.175 170.55 211.875 169.688 211.875Z" fill="#383838"/>
<path d="M187.619 194.428C187.219 194.428 186.819 194.275 186.512 193.972C185.903 193.362 185.903 192.369 186.512 191.762L199.019 179.275C196.312 177.406 193.316 178.084 190.109 181.287L183.062 188.319C182.453 188.928 181.462 188.928 180.853 188.319C180.244 187.706 180.244 186.716 180.853 186.109L187.9 179.078C191.9 175.078 195.409 174.822 197.641 175.306C200.219 175.869 201.881 177.531 202.428 178.078C202.722 178.372 202.884 178.769 202.884 179.184C202.884 179.6 202.719 179.997 202.428 180.291L188.719 193.978C188.419 194.275 188.019 194.428 187.619 194.428Z" fill="#383838"/>
<path d="M187.619 194.428C187.219 194.428 186.819 194.275 186.512 193.972C185.903 193.362 185.903 192.369 186.512 191.762L199.019 179.275C196.312 177.406 193.316 178.084 190.109 181.287L183.062 188.319C182.453 188.928 181.462 188.928 180.853 188.319C180.244 187.706 180.244 186.716 180.853 186.109L187.9 179.078C191.9 175.078 195.409 174.822 197.641 175.306C200.219 175.869 201.881 177.531 202.428 178.078C202.722 178.372 202.884 178.769 202.884 179.184C202.884 179.6 202.719 179.997 202.428 180.291L188.719 193.978C188.419 194.275 188.019 194.428 187.619 194.428Z" fill="#383838"/>
<defs>
<filter id="filter0_d_258_1475" x="64" y="68" width="202" height="202" filterUnits="userSpaceOnUse" color-interpolation-filters="sRGB">
<feFlood flood-opacity="0" result="BackgroundImageFix"/>
<feColorMatrix in="SourceAlpha" type="matrix" values="0 0 0 0 0 0 0 0 0 0 0 0 0 0 0 0 0 0 127 0" result="hardAlpha"/>
<feOffset dy="4"/>
<feGaussianBlur stdDeviation="4.5"/>
<feComposite in2="hardAlpha" operator="out"/>
<feColorMatrix type="matrix" values="0 0 0 0 0 0 0 0 0 0 0 0 0 0 0 0 0 0 0.25 0"/>
<feBlend mode="normal" in2="BackgroundImageFix" result="effect1_dropShadow_258_1475"/>
<feBlend mode="normal" in="SourceGraphic" in2="effect1_dropShadow_258_1475" result="shape"/>
</filter>
</defs>
</svg>
