<svg width="364" height="430" viewBox="0 0 364 430" fill="none" xmlns="http://www.w3.org/2000/svg">
<rect width="364" height="430" rx="20" fill="#FFCEA0"/>
<g filter="url(#filter0_d_161_243)">
<rect x="90" y="123" width="184" height="184" rx="20" fill="white"/>
</g>
<path d="M217.744 207.228C217.022 207.228 216.369 206.719 216.216 205.981C215.659 203.278 213.697 201.053 211.094 200.172L203.934 197.734C202.028 197.081 200.75 195.291 200.75 193.281V188.437C200.75 187.575 201.45 186.875 202.312 186.875C203.175 186.875 203.875 187.575 203.875 188.437V193.281C203.875 193.966 204.294 194.55 204.941 194.772L212.097 197.209C215.747 198.447 218.497 201.566 219.275 205.35C219.45 206.197 218.906 207.022 218.059 207.194C217.953 207.219 217.85 207.228 217.744 207.228Z" fill="#5B5B5B"/>
<path d="M179.638 203.006C179.272 203.006 178.903 202.878 178.606 202.619C177.959 202.047 177.894 201.062 178.463 200.412C179.719 198.981 181.341 197.894 183.147 197.272L190.303 194.803C190.947 194.584 191.375 193.997 191.375 193.344V188.438C191.375 187.575 192.075 186.875 192.938 186.875C193.8 186.875 194.5 187.575 194.5 188.438V193.344C194.5 195.337 193.222 197.109 191.316 197.759L184.166 200.225C182.872 200.672 181.713 201.45 180.813 202.475C180.503 202.825 180.072 203.006 179.638 203.006Z" fill="#5B5B5B"/>
<path d="M192.922 189.987C192.594 189.987 192.263 189.884 191.981 189.672C189.613 187.884 188.25 185.156 188.25 182.188V175.938C188.25 171.628 191.753 168.125 196.062 168.125H199.188C203.497 168.125 207 171.628 207 175.938V182.188C207 183.05 206.3 183.75 205.438 183.75C204.575 183.75 203.875 183.05 203.875 182.188V175.938C203.875 173.353 201.772 171.25 199.188 171.25H196.062C193.478 171.25 191.375 173.353 191.375 175.938V182.188C191.375 184.166 192.281 185.984 193.862 187.178C194.553 187.7 194.691 188.678 194.172 189.366C193.863 189.775 193.394 189.987 192.922 189.987Z" fill="#5B5B5B"/>
<path d="M199.197 191.403C198.472 191.403 197.822 190.894 197.669 190.153C197.497 189.306 198.044 188.484 198.891 188.309C201.778 187.722 203.875 185.144 203.875 182.188C203.875 181.325 204.575 180.625 205.438 180.625C206.3 180.625 207 181.325 207 182.188C207 186.625 203.85 190.484 199.513 191.372C199.406 191.394 199.3 191.403 199.197 191.403Z" fill="#5B5B5B"/>
<path d="M150.75 205.625C150.625 205.625 150.497 205.609 150.369 205.575C149.531 205.366 149.022 204.516 149.237 203.681L150.05 200.462C151.544 194.453 152.444 188.219 152.722 181.931L152.719 181.406C152.978 175.681 157.603 171.25 163.25 171.25C166.006 171.25 168.591 172.297 170.531 174.194C172.491 176.044 173.641 178.588 173.75 181.344L173.778 181.922C174.016 187.284 174.709 192.628 175.837 197.822C176.022 198.666 175.487 199.497 174.644 199.681C173.797 199.875 172.969 199.331 172.784 198.487C171.616 193.119 170.9 187.6 170.653 182.072L170.625 181.484C170.547 179.534 169.744 177.753 168.362 176.447C166.994 175.103 165.184 174.375 163.25 174.375C159.278 174.375 156.025 177.494 155.841 181.475L155.844 182C155.553 188.562 154.625 195.006 153.078 201.219L152.262 204.441C152.087 205.153 151.45 205.625 150.75 205.625Z" fill="#5B5B5B"/>
<path d="M147.991 208.744C147.703 208.744 147.416 208.669 147.156 208.503C146.428 208.047 146.206 207.078 146.669 206.35C148.188 203.937 150.381 202.062 153.003 200.937L156.038 199.631C156.622 199.375 157 198.8 157 198.166C157 197.303 157.7 196.603 158.563 196.603C159.425 196.603 160.125 197.303 160.125 198.166C160.125 200.053 159.006 201.75 157.272 202.497L154.238 203.803C152.2 204.681 150.497 206.137 149.313 208.016C149.016 208.484 148.509 208.744 147.991 208.744Z" fill="#5B5B5B"/>
<path d="M163.25 196.25C161.203 196.25 159.256 195.6 157.619 194.369C156.925 193.853 156.787 192.872 157.306 192.184C157.825 191.497 158.803 191.35 159.491 191.872C160.584 192.691 161.884 193.125 163.25 193.125C166.697 193.125 169.5 190.322 169.5 186.875V184.847C166.178 184.969 163.128 183.887 160.709 181.937C160.037 181.394 159.931 180.412 160.469 179.741C161.009 179.066 162 178.966 162.666 179.503C163.747 180.375 166.044 181.806 169.5 181.812H169.512C170.369 181.812 171.162 182.134 171.75 182.716C172.312 183.278 172.625 184.034 172.625 184.847V186.875C172.625 192.044 168.419 196.25 163.25 196.25Z" fill="#5B5B5B"/>
<path d="M198.147 231.712C197.734 231.712 197.325 231.55 197.019 231.231C196.344 230.525 195.55 229.959 194.656 229.547L191.75 228.203C190.063 227.375 189.031 225.75 189.031 223.941V221.875C189.031 221.012 189.731 220.312 190.594 220.312C191.456 220.312 192.156 221.012 192.156 221.875V223.937C192.156 224.544 192.516 225.094 193.094 225.378L195.969 226.706C197.216 227.284 198.331 228.078 199.278 229.069C199.872 229.694 199.853 230.684 199.228 231.278C198.925 231.569 198.534 231.712 198.147 231.712Z" fill="#5B5B5B"/>
<path d="M172.725 236.834C172.65 236.834 172.572 236.828 172.497 236.819C171.644 236.694 171.053 235.9 171.175 235.047C171.709 231.381 174.038 228.262 177.406 226.706L180.313 225.362C180.859 225.094 181.219 224.544 181.219 223.937V221.875C181.219 221.013 181.919 220.312 182.781 220.312C183.644 220.312 184.344 221.013 184.344 221.875V223.937C184.344 225.747 183.313 227.375 181.656 228.184L178.722 229.544C176.316 230.653 174.65 232.878 174.272 235.497C174.156 236.278 173.488 236.834 172.725 236.834Z" fill="#5B5B5B"/>
<path d="M187.472 224.325C186.697 224.325 186.025 223.747 185.925 222.959C185.816 222.103 186.422 221.322 187.278 221.209C189.616 220.919 191.375 218.916 191.375 216.562V213.437C191.375 212.178 190.888 211.012 190.006 210.15C189.113 209.237 187.947 208.75 186.688 208.75C184.103 208.75 182 210.853 182 213.437V216.562C182 217.822 182.487 218.987 183.369 219.85C183.522 220.006 183.659 220.131 183.803 220.247C184.469 220.794 184.566 221.778 184.019 222.447C183.472 223.112 182.494 223.209 181.819 222.662C181.591 222.472 181.372 222.275 181.166 222.066C179.697 220.634 178.875 218.672 178.875 216.562V213.437C178.875 209.128 182.378 205.625 186.688 205.625C188.797 205.625 190.759 206.447 192.216 207.941C193.678 209.366 194.5 211.328 194.5 213.437V216.562C194.5 220.487 191.566 223.819 187.672 224.312C187.606 224.322 187.537 224.325 187.472 224.325Z" fill="#5B5B5B"/>
<path d="M177.369 207.197C176.931 207.197 176.5 207.013 176.191 206.659C175.106 205.416 173.791 204.453 172.281 203.8L169.194 202.466C167.481 201.728 166.375 200.047 166.375 198.178V193.125C166.375 192.263 167.075 191.562 167.938 191.562C168.8 191.562 169.5 192.263 169.5 193.125V198.178C169.5 198.794 169.866 199.353 170.431 199.597L173.519 200.931C175.463 201.772 177.153 203.009 178.544 204.609C179.113 205.259 179.041 206.247 178.391 206.812C178.097 207.072 177.731 207.197 177.369 207.197Z" fill="#5B5B5B"/>
<path d="M158.562 261.875C157.7 261.875 157 261.175 157 260.313V257.828L146.466 249.572C145.147 248.522 143.381 246.463 142.691 244.822L135.253 227.531C135.169 227.338 135.125 227.131 135.125 226.916V211.856C135.125 209.913 137.328 208.481 139.456 208.219C142.1 207.869 145.409 209.316 146.659 214.303C147.303 216.894 147.447 219.084 147.575 221.016C147.634 221.875 146.984 222.684 146.122 222.744C145.259 222.725 144.519 222.209 144.466 221.353C144.338 219.422 144.203 217.381 143.625 215.059C143.231 213.487 142.387 211.563 140.584 211.322C139.384 211.15 138.369 211.797 138.203 212.091L138.25 226.594L145.566 243.603C146.022 244.691 147.441 246.353 148.403 247.119L159.528 255.838C159.906 256.134 160.125 256.591 160.125 257.069V260.313C160.125 261.175 159.425 261.875 158.562 261.875Z" fill="#5B5B5B"/>
<path d="M177.313 261.875C176.45 261.875 175.75 261.175 175.75 260.313V252.616C175.75 246.031 171.203 240.291 164.691 238.653C163.853 238.444 163.347 237.591 163.556 236.756C163.766 235.919 164.609 235.419 165.453 235.622C173.353 237.609 178.875 244.597 178.875 252.616V260.313C178.875 261.175 178.175 261.875 177.313 261.875Z" fill="#5B5B5B"/>
<path d="M159.381 244.428C158.981 244.428 158.581 244.275 158.275 243.972L144.566 230.284C144.272 229.991 144.109 229.594 144.109 229.178C144.109 228.763 144.275 228.366 144.566 228.072C145.112 227.525 146.775 225.862 149.353 225.3C151.587 224.812 155.094 225.072 159.094 229.072L166.141 236.103C166.75 236.709 166.75 237.7 166.141 238.312C165.531 238.922 164.541 238.922 163.931 238.312L156.884 231.281C153.681 228.081 150.684 227.4 147.975 229.269L160.481 241.756C161.091 242.363 161.091 243.356 160.481 243.966C160.181 244.275 159.781 244.428 159.381 244.428Z" fill="#5B5B5B"/>
<path d="M205.438 261.875C204.575 261.875 203.875 261.175 203.875 260.313V257.069C203.875 256.591 204.094 256.134 204.472 255.838L215.606 247.113C216.562 246.353 217.978 244.691 218.428 243.616L225.75 226.597V211.856C225.631 211.797 224.6 211.156 223.416 211.322C221.616 211.563 220.769 213.488 220.375 215.059C219.797 217.378 219.662 219.422 219.544 221.222L217.978 221.25L216.419 221.147C216.556 219.088 216.7 216.897 217.344 214.306C218.591 209.316 221.897 207.875 224.547 208.222C226.672 208.481 228.875 209.913 228.875 211.856V226.916C228.875 227.128 228.831 227.338 228.747 227.531L221.303 244.834C220.619 246.463 218.853 248.522 217.544 249.566L207 257.828V260.313C207 261.175 206.3 261.875 205.438 261.875Z" fill="#5B5B5B"/>
<path d="M186.688 261.875C185.825 261.875 185.125 261.175 185.125 260.313V252.616C185.125 244.597 190.647 237.609 198.547 235.622C199.394 235.422 200.231 235.922 200.444 236.756C200.65 237.594 200.144 238.444 199.309 238.653C192.797 240.291 188.25 246.031 188.25 252.616V260.313C188.25 261.175 187.55 261.875 186.688 261.875Z" fill="#5B5B5B"/>
<path d="M204.619 244.428C204.219 244.428 203.819 244.275 203.512 243.972C202.903 243.363 202.903 242.369 203.512 241.763L216.019 229.275C213.312 227.406 210.316 228.084 207.109 231.288L200.062 238.319C199.453 238.928 198.462 238.928 197.853 238.319C197.244 237.706 197.244 236.716 197.853 236.109L204.9 229.078C208.9 225.078 212.409 224.822 214.641 225.306C217.219 225.869 218.881 227.531 219.428 228.078C219.722 228.372 219.884 228.769 219.884 229.184C219.884 229.6 219.719 229.997 219.428 230.291L205.719 243.978C205.419 244.275 205.019 244.428 204.619 244.428Z" fill="#5B5B5B"/>
<path d="M204.619 244.428C204.219 244.428 203.819 244.275 203.512 243.972C202.903 243.363 202.903 242.369 203.512 241.763L216.019 229.275C213.312 227.406 210.316 228.084 207.109 231.288L200.062 238.319C199.453 238.928 198.462 238.928 197.853 238.319C197.244 237.706 197.244 236.716 197.853 236.109L204.9 229.078C208.9 225.078 212.409 224.822 214.641 225.306C217.219 225.869 218.881 227.531 219.428 228.078C219.722 228.372 219.884 228.769 219.884 229.184C219.884 229.6 219.719 229.997 219.428 230.291L205.719 243.978C205.419 244.275 205.019 244.428 204.619 244.428Z" fill="#5B5B5B"/>
<defs>
<filter id="filter0_d_161_243" x="81" y="118" width="202" height="202" filterUnits="userSpaceOnUse" color-interpolation-filters="sRGB">
<feFlood flood-opacity="0" result="BackgroundImageFix"/>
<feColorMatrix in="SourceAlpha" type="matrix" values="0 0 0 0 0 0 0 0 0 0 0 0 0 0 0 0 0 0 127 0" result="hardAlpha"/>
<feOffset dy="4"/>
<feGaussianBlur stdDeviation="4.5"/>
<feComposite in2="hardAlpha" operator="out"/>
<feColorMatrix type="matrix" values="0 0 0 0 0 0 0 0 0 0 0 0 0 0 0 0 0 0 0.25 0"/>
<feBlend mode="normal" in2="BackgroundImageFix" result="effect1_dropShadow_161_243"/>
<feBlend mode="normal" in="SourceGraphic" in2="effect1_dropShadow_161_243" result="shape"/>
</filter>
</defs>
</svg>
