<svg width="364" height="430" viewBox="0 0 364 430" fill="none" xmlns="http://www.w3.org/2000/svg">
<rect width="364" height="430" rx="20" fill="#FFCEA0"/>
<g filter="url(#filter0_d_161_238)">
<rect x="90" y="123" width="184" height="184" rx="20" fill="white"/>
</g>
<path d="M206.987 235.331C206.662 235.331 206.331 235.228 206.05 235.016C205.359 234.497 205.222 233.519 205.741 232.828C209.631 227.656 211.687 221.491 211.687 215C211.687 212.962 211.478 210.922 211.066 208.937C210.891 208.091 211.434 207.266 212.278 207.091C213.119 206.916 213.95 207.459 214.125 208.303C214.581 210.497 214.812 212.75 214.812 215C214.812 222.172 212.537 228.991 208.237 234.709C207.928 235.119 207.459 235.331 206.987 235.331Z" fill="#5B5B5B"/>
<path d="M151.425 223.075C150.703 223.075 150.053 222.569 149.897 221.834C149.428 219.594 149.188 217.294 149.188 215C149.188 207.859 151.441 201.069 155.706 195.369C156.222 194.675 157.203 194.531 157.894 195.053C158.584 195.572 158.728 196.55 158.209 197.241C154.35 202.397 152.312 208.537 152.312 215C152.312 217.078 152.528 219.162 152.956 221.191C153.134 222.034 152.594 222.862 151.75 223.041C151.641 223.066 151.531 223.075 151.425 223.075Z" fill="#5B5B5B"/>
<path d="M186.688 230.625H177.312C176.45 230.625 175.75 229.925 175.75 229.062V221.25H167.938C167.075 221.25 166.375 220.55 166.375 219.688V210.312C166.375 209.45 167.075 208.75 167.938 208.75H175.75V200.938C175.75 200.075 176.45 199.375 177.312 199.375H186.688C187.55 199.375 188.25 200.075 188.25 200.938V208.75H196.062C196.925 208.75 197.625 209.45 197.625 210.312V219.688C197.625 220.55 196.925 221.25 196.062 221.25H188.25V229.062C188.25 229.925 187.55 230.625 186.688 230.625ZM178.875 227.5H185.125V219.688C185.125 218.825 185.825 218.125 186.688 218.125H194.5V211.875H186.688C185.825 211.875 185.125 211.175 185.125 210.312V202.5H178.875V210.312C178.875 211.175 178.175 211.875 177.312 211.875H169.5V218.125H177.312C178.175 218.125 178.875 218.825 178.875 219.688V227.5Z" fill="#5B5B5B"/>
<path d="M188.691 258.75H172.312C169.259 258.75 166.278 258.069 163.45 256.725L152.503 251.406C149.697 250.059 146.706 249.375 143.628 249.375H136.688C135.825 249.375 135.125 248.675 135.125 247.813C135.125 246.95 135.825 246.25 136.688 246.25H143.628C147.178 246.25 150.622 247.038 153.862 248.594L164.806 253.909C167.2 255.044 169.728 255.625 172.312 255.625H188.378L202.025 249.994C202.025 249.863 202.209 248.653 201.609 247.625C200.694 246.05 198.578 246 196.975 246.234C194.647 246.594 192.722 247.241 191.025 247.813L190.381 248.028C189.559 248.294 188.678 247.859 188.406 247.038C188.134 246.219 188.578 245.334 189.397 245.063L190.028 244.853C191.847 244.241 193.906 243.547 196.512 243.147C202.956 242.209 204.566 246.234 204.913 247.488C205.484 249.553 205.009 252.138 203.225 252.884L189.284 258.638C189.097 258.709 188.894 258.75 188.691 258.75Z" fill="#5B5B5B"/>
<path d="M168.359 236.491C167.772 236.491 167.206 236.156 166.941 235.588C163.878 228.997 155.922 228.053 150.006 230.506C149.816 230.584 149.613 230.625 149.406 230.625H136.688C135.825 230.625 135.125 229.925 135.125 229.063C135.125 228.2 135.825 227.5 136.688 227.5H149.103C157.562 224.141 166.403 227.025 169.778 234.272C170.141 235.053 169.803 235.984 169.019 236.35C168.803 236.444 168.581 236.491 168.359 236.491Z" fill="#5B5B5B"/>
<path d="M183.169 251.322C182.966 251.322 182.762 251.281 182.572 251.203L164.678 243.775C163.881 243.444 163.503 242.531 163.834 241.731C164.166 240.934 165.081 240.559 165.878 240.888L182.2 247.663C182.884 244.441 181.122 241.934 176.934 240.2L167.737 236.381C166.941 236.05 166.562 235.134 166.894 234.338C167.225 233.541 168.141 233.163 168.937 233.494L178.131 237.313C184.572 239.981 186.934 244.734 184.612 250.35C184.453 250.734 184.15 251.041 183.766 251.197C183.575 251.281 183.372 251.322 183.169 251.322Z" fill="#5B5B5B"/>
<path d="M165.659 186.997C160.744 186.997 159.4 183.641 159.087 182.516C158.516 180.45 158.991 177.866 160.775 177.119L174.716 171.366C174.903 171.291 175.106 171.25 175.309 171.25H191.684C194.737 171.25 197.719 171.931 200.547 173.275L211.494 178.594C214.303 179.941 217.294 180.625 220.372 180.625H227.312C228.175 180.625 228.875 181.325 228.875 182.188C228.875 183.05 228.175 183.75 227.312 183.75H220.372C216.822 183.75 213.378 182.962 210.137 181.406L199.194 176.094C196.8 174.956 194.272 174.375 191.687 174.375H175.622L161.972 180.006C161.972 180.137 161.787 181.347 162.387 182.375C163.306 183.95 165.416 184 167.022 183.766C169.35 183.406 171.275 182.759 172.972 182.188L173.616 181.972C174.437 181.703 175.319 182.141 175.591 182.963C175.862 183.781 175.419 184.666 174.6 184.938L173.969 185.147C172.15 185.759 170.091 186.453 167.484 186.853C166.828 186.953 166.219 186.997 165.659 186.997Z" fill="#5B5B5B"/>
<path d="M207.809 203.891C201.903 203.891 196.647 200.941 194.222 195.728C193.859 194.947 194.197 194.016 194.981 193.65C195.766 193.287 196.694 193.628 197.059 194.409C200.119 200.997 208.072 201.937 213.994 199.491C214.184 199.416 214.387 199.375 214.594 199.375H227.312C228.175 199.375 228.875 200.075 228.875 200.937C228.875 201.8 228.175 202.5 227.312 202.5H214.897C212.522 203.441 210.116 203.891 207.809 203.891Z" fill="#5B5B5B"/>
<path d="M195.663 196.625C195.463 196.625 195.259 196.587 195.063 196.506L185.869 192.687C179.428 190.019 177.066 185.266 179.388 179.65C179.547 179.266 179.85 178.959 180.234 178.803C180.619 178.647 181.047 178.644 181.431 178.803L199.325 186.231C200.122 186.562 200.5 187.475 200.169 188.275C199.837 189.075 198.928 189.447 198.125 189.119L181.803 182.344C181.119 185.566 182.881 188.072 187.069 189.806L196.266 193.625C197.063 193.956 197.441 194.872 197.109 195.669C196.856 196.262 196.275 196.625 195.663 196.625Z" fill="#5B5B5B"/>
<path d="M202.359 240.109C201.959 240.109 201.559 239.956 201.253 239.653C200.644 239.044 200.644 238.053 201.253 237.444C201.866 236.834 202.963 236.725 203.572 237.334C204.181 237.944 204.291 238.825 203.681 239.434L203.463 239.653C203.159 239.956 202.759 240.109 202.359 240.109Z" fill="#5B5B5B"/>
<path d="M161.734 193.234C161.331 193.234 160.928 193.078 160.622 192.769C160.016 192.153 160.022 191.166 160.637 190.559L160.859 190.341C161.472 189.734 162.462 189.741 163.069 190.356C163.675 190.972 163.669 191.959 163.053 192.566L162.831 192.784C162.528 193.084 162.131 193.234 161.734 193.234Z" fill="#5B5B5B"/>
<defs>
<filter id="filter0_d_161_238" x="81" y="118" width="202" height="202" filterUnits="userSpaceOnUse" color-interpolation-filters="sRGB">
<feFlood flood-opacity="0" result="BackgroundImageFix"/>
<feColorMatrix in="SourceAlpha" type="matrix" values="0 0 0 0 0 0 0 0 0 0 0 0 0 0 0 0 0 0 127 0" result="hardAlpha"/>
<feOffset dy="4"/>
<feGaussianBlur stdDeviation="4.5"/>
<feComposite in2="hardAlpha" operator="out"/>
<feColorMatrix type="matrix" values="0 0 0 0 0 0 0 0 0 0 0 0 0 0 0 0 0 0 0.25 0"/>
<feBlend mode="normal" in2="BackgroundImageFix" result="effect1_dropShadow_161_238"/>
<feBlend mode="normal" in="SourceGraphic" in2="effect1_dropShadow_161_238" result="shape"/>
</filter>
</defs>
</svg>
