<svg width="330" height="330" viewBox="0 0 330 330" fill="none" xmlns="http://www.w3.org/2000/svg">
<rect width="330" height="330" rx="20" fill="#FFCEA0"/>
<g filter="url(#filter0_d_258_1441)">
<rect x="73" y="73" width="184" height="184" rx="20" fill="white"/>
</g>
<path d="M189.987 185.331C189.662 185.331 189.331 185.228 189.05 185.016C188.359 184.497 188.222 183.519 188.74 182.828C192.631 177.656 194.687 171.491 194.687 165C194.687 162.962 194.478 160.922 194.066 158.937C193.891 158.091 194.434 157.266 195.278 157.091C196.119 156.916 196.95 157.459 197.125 158.303C197.581 160.497 197.812 162.75 197.812 165C197.812 172.172 195.537 178.991 191.237 184.709C190.928 185.119 190.459 185.331 189.987 185.331Z" fill="#383838"/>
<path d="M134.425 173.075C133.703 173.075 133.053 172.569 132.897 171.834C132.428 169.594 132.188 167.294 132.188 165C132.188 157.859 134.441 151.069 138.706 145.369C139.222 144.675 140.203 144.531 140.894 145.053C141.584 145.572 141.728 146.55 141.209 147.241C137.35 152.397 135.312 158.537 135.312 165C135.312 167.078 135.528 169.162 135.956 171.191C136.134 172.034 135.594 172.862 134.75 173.041C134.641 173.066 134.531 173.075 134.425 173.075Z" fill="#383838"/>
<path d="M169.688 180.625H160.312C159.45 180.625 158.75 179.925 158.75 179.062V171.25H150.938C150.075 171.25 149.375 170.55 149.375 169.688V160.312C149.375 159.45 150.075 158.75 150.938 158.75H158.75V150.938C158.75 150.075 159.45 149.375 160.312 149.375H169.688C170.55 149.375 171.25 150.075 171.25 150.938V158.75H179.062C179.925 158.75 180.625 159.45 180.625 160.312V169.688C180.625 170.55 179.925 171.25 179.062 171.25H171.25V179.062C171.25 179.925 170.55 180.625 169.688 180.625ZM161.875 177.5H168.125V169.688C168.125 168.825 168.825 168.125 169.688 168.125H177.5V161.875H169.688C168.825 161.875 168.125 161.175 168.125 160.312V152.5H161.875V160.312C161.875 161.175 161.175 161.875 160.312 161.875H152.5V168.125H160.312C161.175 168.125 161.875 168.825 161.875 169.688V177.5Z" fill="#383838"/>
<path d="M171.691 208.75H155.312C152.259 208.75 149.278 208.069 146.45 206.725L135.503 201.406C132.697 200.059 129.706 199.375 126.628 199.375H119.688C118.825 199.375 118.125 198.675 118.125 197.813C118.125 196.95 118.825 196.25 119.688 196.25H126.628C130.178 196.25 133.622 197.038 136.862 198.594L147.806 203.909C150.2 205.044 152.728 205.625 155.312 205.625H171.378L185.025 199.994C185.025 199.863 185.209 198.653 184.609 197.625C183.694 196.05 181.578 196 179.975 196.234C177.647 196.594 175.722 197.241 174.025 197.813L173.381 198.028C172.559 198.294 171.678 197.859 171.406 197.038C171.134 196.219 171.578 195.334 172.397 195.063L173.028 194.853C174.847 194.241 176.906 193.547 179.512 193.147C185.956 192.209 187.566 196.234 187.913 197.488C188.484 199.553 188.009 202.138 186.225 202.884L172.284 208.638C172.097 208.709 171.894 208.75 171.691 208.75Z" fill="#383838"/>
<path d="M151.359 186.491C150.772 186.491 150.206 186.156 149.941 185.588C146.878 178.997 138.922 178.053 133.006 180.506C132.816 180.584 132.613 180.625 132.406 180.625H119.688C118.825 180.625 118.125 179.925 118.125 179.063C118.125 178.2 118.825 177.5 119.688 177.5H132.103C140.562 174.141 149.403 177.025 152.778 184.272C153.141 185.053 152.803 185.984 152.019 186.35C151.803 186.444 151.581 186.491 151.359 186.491Z" fill="#383838"/>
<path d="M166.169 201.322C165.966 201.322 165.762 201.281 165.572 201.203L147.678 193.775C146.881 193.444 146.503 192.531 146.834 191.731C147.166 190.934 148.081 190.559 148.878 190.888L165.2 197.663C165.884 194.441 164.122 191.934 159.934 190.2L150.737 186.381C149.941 186.05 149.562 185.134 149.894 184.338C150.225 183.541 151.141 183.163 151.937 183.494L161.131 187.313C167.572 189.981 169.934 194.734 167.612 200.35C167.453 200.734 167.15 201.041 166.766 201.197C166.575 201.281 166.372 201.322 166.169 201.322Z" fill="#383838"/>
<path d="M148.659 136.997C143.744 136.997 142.4 133.641 142.088 132.516C141.516 130.45 141.991 127.866 143.775 127.119L157.716 121.366C157.903 121.291 158.106 121.25 158.309 121.25H174.684C177.738 121.25 180.719 121.931 183.547 123.275L194.494 128.594C197.303 129.941 200.294 130.625 203.372 130.625H210.313C211.175 130.625 211.875 131.325 211.875 132.188C211.875 133.05 211.175 133.75 210.313 133.75H203.372C199.822 133.75 196.378 132.962 193.138 131.406L182.194 126.094C179.8 124.956 177.272 124.375 174.688 124.375H158.622L144.972 130.006C144.972 130.137 144.788 131.347 145.388 132.375C146.306 133.95 148.416 134 150.022 133.766C152.35 133.406 154.275 132.759 155.972 132.188L156.616 131.972C157.438 131.703 158.319 132.141 158.591 132.963C158.863 133.781 158.419 134.666 157.6 134.938L156.969 135.147C155.15 135.759 153.091 136.453 150.484 136.853C149.828 136.953 149.219 136.997 148.659 136.997Z" fill="#383838"/>
<path d="M190.81 153.891C184.903 153.891 179.647 150.941 177.222 145.728C176.86 144.947 177.197 144.016 177.982 143.65C178.766 143.288 179.694 143.628 180.06 144.409C183.119 150.997 191.072 151.938 196.994 149.491C197.185 149.416 197.388 149.375 197.594 149.375H210.313C211.175 149.375 211.875 150.075 211.875 150.938C211.875 151.8 211.175 152.5 210.313 152.5H197.897C195.522 153.441 193.116 153.891 190.81 153.891Z" fill="#383838"/>
<path d="M178.663 146.625C178.463 146.625 178.26 146.587 178.063 146.506L168.869 142.687C162.428 140.019 160.066 135.266 162.388 129.65C162.547 129.266 162.85 128.959 163.235 128.803C163.619 128.647 164.047 128.644 164.431 128.803L182.325 136.231C183.122 136.562 183.5 137.475 183.169 138.275C182.838 139.075 181.928 139.447 181.125 139.119L164.803 132.344C164.119 135.566 165.881 138.072 170.069 139.806L179.266 143.625C180.063 143.956 180.441 144.872 180.11 145.669C179.856 146.262 179.275 146.625 178.663 146.625Z" fill="#383838"/>
<path d="M185.359 190.109C184.959 190.109 184.559 189.956 184.253 189.653C183.644 189.044 183.644 188.053 184.253 187.444C184.865 186.834 185.962 186.725 186.572 187.334C187.181 187.944 187.29 188.825 186.681 189.434L186.462 189.653C186.159 189.956 185.759 190.109 185.359 190.109Z" fill="#383838"/>
<path d="M144.734 143.234C144.331 143.234 143.928 143.078 143.622 142.769C143.016 142.153 143.022 141.166 143.637 140.559L143.859 140.341C144.472 139.734 145.462 139.741 146.069 140.356C146.675 140.972 146.669 141.959 146.053 142.566L145.831 142.784C145.528 143.084 145.131 143.234 144.734 143.234Z" fill="#383838"/>
<defs>
<filter id="filter0_d_258_1441" x="64" y="68" width="202" height="202" filterUnits="userSpaceOnUse" color-interpolation-filters="sRGB">
<feFlood flood-opacity="0" result="BackgroundImageFix"/>
<feColorMatrix in="SourceAlpha" type="matrix" values="0 0 0 0 0 0 0 0 0 0 0 0 0 0 0 0 0 0 127 0" result="hardAlpha"/>
<feOffset dy="4"/>
<feGaussianBlur stdDeviation="4.5"/>
<feComposite in2="hardAlpha" operator="out"/>
<feColorMatrix type="matrix" values="0 0 0 0 0 0 0 0 0 0 0 0 0 0 0 0 0 0 0.25 0"/>
<feBlend mode="normal" in2="BackgroundImageFix" result="effect1_dropShadow_258_1441"/>
<feBlend mode="normal" in="SourceGraphic" in2="effect1_dropShadow_258_1441" result="shape"/>
</filter>
</defs>
</svg>
