<?xml version="1.0" encoding="UTF-8" standalone="no"?>
<svg
   width="364"
   height="430"
   viewBox="0 0 364 430"
   fill="none"
   version="1.1"
   id="svg12"
   xml:space="preserve"
   xmlns="http://www.w3.org/2000/svg"
   xmlns:svg="http://www.w3.org/2000/svg"><rect
     width="364"
     height="430"
     rx="20"
     fill="#FFCEA0"
     id="rect1" /><g
     filter="url(#filter0_d_161_251)"
     id="g2"><rect
       x="90"
       y="123"
       width="184"
       height="184"
       rx="20"
       fill="white"
       id="rect2" /></g><defs
     id="defs12"><filter
       id="filter0_d_161_251"
       x="81"
       y="118"
       width="202"
       height="202"
       filterUnits="userSpaceOnUse"
       color-interpolation-filters="sRGB"><feFlood
         flood-opacity="0"
         result="BackgroundImageFix"
         id="feFlood10" /><feColorMatrix
         in="SourceAlpha"
         type="matrix"
         values="0 0 0 0 0 0 0 0 0 0 0 0 0 0 0 0 0 0 127 0"
         result="hardAlpha"
         id="feColorMatrix10" /><feOffset
         dy="4"
         id="feOffset10" /><feGaussianBlur
         stdDeviation="4.5"
         id="feGaussianBlur10" /><feComposite
         in2="hardAlpha"
         operator="out"
         id="feComposite10" /><feColorMatrix
         type="matrix"
         values="0 0 0 0 0 0 0 0 0 0 0 0 0 0 0 0 0 0 0.25 0"
         id="feColorMatrix11" /><feBlend
         mode="normal"
         in2="BackgroundImageFix"
         result="effect1_dropShadow_161_251"
         id="feBlend11" /><feBlend
         mode="normal"
         in="SourceGraphic"
         in2="effect1_dropShadow_161_251"
         result="shape"
         id="feBlend12" /></filter></defs><g
     style="fill:none;stroke:#5b5b5b;stroke-width:2;stroke-linecap:round;stroke-linejoin:round;stroke-opacity:1"
     id="g13"
     transform="matrix(4.875823,0,0,4.875823,117.99308,152.47271)"><path
       d="m 11,14 h 2 a 2,2 0 1 0 0,-4 H 10 C 9.4,10 8.9,10.2 8.6,10.6 L 3,16"
       id="path1-0"
       style="stroke:#5b5b5b;stroke-opacity:1" /><path
       d="M 7,20 8.6,18.6 C 8.9,18.2 9.4,18 10,18 h 4 c 1.1,0 2.1,-0.4 2.8,-1.2 l 4.6,-4.4 A 2.0019116,2.0019116 0 0 0 18.65,9.49 l -4.2,3.9"
       id="path2"
       style="stroke:#5b5b5b;stroke-opacity:1" /><path
       d="m 2,15 6,6"
       id="path3"
       style="stroke:#5b5b5b;stroke-opacity:1" /><path
       d="M 19.5,8.5 C 20.2,7.8 21,6.9 21,5.8 A 2.73,2.73 0 0 0 16,4 2.78,2.78 0 0 0 11,5.8 c 0,1.2 0.8,2 1.5,2.8 L 16,12 Z"
       id="path4"
       style="stroke:#5b5b5b;stroke-opacity:1" /></g></svg>
